ISO-10303-21;
HEADER;
FILE_DESCRIPTION(('Open CASCADE Model'),'2;1');
FILE_NAME('Open CASCADE Shape Model','2026-09-24T09:26:56',('Author'),(
    'Open CASCADE'),'Open CASCADE STEP processor 7.9','Open CASCADE 7.9'
  ,'Unknown');
FILE_SCHEMA(('AUTOMOTIVE_DESIGN { 1 0 10303 214 1 1 1 1 }'));
ENDSEC;
DATA;
#1 = APPLICATION_PROTOCOL_DEFINITION('international standard',
  'automotive_design',2000,#2);
#2 = APPLICATION_CONTEXT(
  'core data for automotive mechanical design processes');
#3 = SHAPE_DEFINITION_REPRESENTATION(#4,#10);
#4 = PRODUCT_DEFINITION_SHAPE('','',#5);
#5 = PRODUCT_DEFINITION('design','',#6,#9);
#6 = PRODUCT_DEFINITION_FORMATION('','',#7);
#7 = PRODUCT('Open CASCADE STEP translator 7.9 1',
  'Open CASCADE STEP translator 7.9 1','',(#8));
#8 = PRODUCT_CONTEXT('',#2,'mechanical');
#9 = PRODUCT_DEFINITION_CONTEXT('part definition',#2,'design');
#10 = ADVANCED_BREP_SHAPE_REPRESENTATION('',(#11,#15),#1213);
#11 = AXIS2_PLACEMENT_3D('',#12,#13,#14);
#12 = CARTESIAN_POINT('',(0.,0.,0.));
#13 = DIRECTION('',(0.,0.,1.));
#14 = DIRECTION('',(1.,0.,-0.));
#15 = MANIFOLD_SOLID_BREP('',#16);
#16 = CLOSED_SHELL('',(#17,#481,#606,#651,#696,#770,#960,#1150,#1175,
    #1206));
#17 = ADVANCED_FACE('',(#18,#139,#310),#33,.T.);
#18 = FACE_BOUND('',#19,.F.);
#19 = EDGE_LOOP('',(#20,#56,#82,#115));
#20 = ORIENTED_EDGE('',*,*,#21,.F.);
#21 = EDGE_CURVE('',#22,#24,#26,.T.);
#22 = VERTEX_POINT('',#23);
#23 = CARTESIAN_POINT('',(-17.8,-7.130261215411,0.));
#24 = VERTEX_POINT('',#25);
#25 = CARTESIAN_POINT('',(-17.8,7.130261215411,0.));
#26 = SURFACE_CURVE('',#27,(#32,#44),.PCURVE_S1.);
#27 = CIRCLE('',#28,19.175);
#28 = AXIS2_PLACEMENT_3D('',#29,#30,#31);
#29 = CARTESIAN_POINT('',(0.,0.,0.));
#30 = DIRECTION('',(0.,0.,1.));
#31 = DIRECTION('',(-0.954795929872,-0.297262059974,0.));
#32 = PCURVE('',#33,#38);
#33 = CYLINDRICAL_SURFACE('',#34,19.175);
#34 = AXIS2_PLACEMENT_3D('',#35,#36,#37);
#35 = CARTESIAN_POINT('',(0.,0.,0.));
#36 = DIRECTION('',(-0.,-0.,-1.));
#37 = DIRECTION('',(1.,0.,0.));
#38 = DEFINITIONAL_REPRESENTATION('',(#39),#43);
#39 = LINE('',#40,#41);
#40 = CARTESIAN_POINT('',(-3.443416456811,0.));
#41 = VECTOR('',#42,1.);
#42 = DIRECTION('',(-1.,0.));
#43 = ( GEOMETRIC_REPRESENTATION_CONTEXT(2) 
PARAMETRIC_REPRESENTATION_CONTEXT() REPRESENTATION_CONTEXT('2D SPACE',''
  ) );
#44 = PCURVE('',#45,#50);
#45 = PLANE('',#46);
#46 = AXIS2_PLACEMENT_3D('',#47,#48,#49);
#47 = CARTESIAN_POINT('',(0.,-7.82753412455E-16,0.));
#48 = DIRECTION('',(0.,0.,1.));
#49 = DIRECTION('',(1.,0.,-0.));
#50 = DEFINITIONAL_REPRESENTATION('',(#51),#55);
#51 = CIRCLE('',#52,19.175);
#52 = AXIS2_PLACEMENT_2D('',#53,#54);
#53 = CARTESIAN_POINT('',(0.,7.82753412455E-16));
#54 = DIRECTION('',(-0.954795929872,-0.297262059974));
#55 = ( GEOMETRIC_REPRESENTATION_CONTEXT(2) 
PARAMETRIC_REPRESENTATION_CONTEXT() REPRESENTATION_CONTEXT('2D SPACE',''
  ) );
#56 = ORIENTED_EDGE('',*,*,#57,.F.);
#57 = EDGE_CURVE('',#58,#22,#60,.T.);
#58 = VERTEX_POINT('',#59);
#59 = CARTESIAN_POINT('',(-17.8,-7.130261215411,14.));
#60 = SURFACE_CURVE('',#61,(#65,#71),.PCURVE_S1.);
#61 = LINE('',#62,#63);
#62 = CARTESIAN_POINT('',(-17.8,-7.130261215411,0.));
#63 = VECTOR('',#64,1.);
#64 = DIRECTION('',(-0.,-0.,-1.));
#65 = PCURVE('',#33,#66);
#66 = DEFINITIONAL_REPRESENTATION('',(#67),#70);
#67 = B_SPLINE_CURVE_WITH_KNOTS('',1,(#68,#69),.UNSPECIFIED.,.F.,.F.,(2,
    2),(-14.0000006,6.E-07),.PIECEWISE_BEZIER_KNOTS.);
#68 = CARTESIAN_POINT('',(-3.522595891183,-14.0000006));
#69 = CARTESIAN_POINT('',(-3.522595891183,6.E-07));
#70 = ( GEOMETRIC_REPRESENTATION_CONTEXT(2) 
PARAMETRIC_REPRESENTATION_CONTEXT() REPRESENTATION_CONTEXT('2D SPACE',''
  ) );
#71 = PCURVE('',#72,#77);
#72 = PLANE('',#73);
#73 = AXIS2_PLACEMENT_3D('',#74,#75,#76);
#74 = CARTESIAN_POINT('',(-17.8,-7.5,-1.));
#75 = DIRECTION('',(-1.,0.,0.));
#76 = DIRECTION('',(0.,1.,0.));
#77 = DEFINITIONAL_REPRESENTATION('',(#78),#81);
#78 = B_SPLINE_CURVE_WITH_KNOTS('',1,(#79,#80),.UNSPECIFIED.,.F.,.F.,(2,
    2),(-14.0000006,6.E-07),.PIECEWISE_BEZIER_KNOTS.);
#79 = CARTESIAN_POINT('',(0.369738784589,-15.0000006));
#80 = CARTESIAN_POINT('',(0.369738784589,-0.9999994));
#81 = ( GEOMETRIC_REPRESENTATION_CONTEXT(2) 
PARAMETRIC_REPRESENTATION_CONTEXT() REPRESENTATION_CONTEXT('2D SPACE',''
  ) );
#82 = ORIENTED_EDGE('',*,*,#83,.F.);
#83 = EDGE_CURVE('',#84,#58,#86,.T.);
#84 = VERTEX_POINT('',#85);
#85 = CARTESIAN_POINT('',(-17.8,7.130261215411,14.));
#86 = SURFACE_CURVE('',#87,(#92,#99),.PCURVE_S1.);
#87 = CIRCLE('',#88,19.175);
#88 = AXIS2_PLACEMENT_3D('',#89,#90,#91);
#89 = CARTESIAN_POINT('',(0.,0.,14.));
#90 = DIRECTION('',(0.,0.,-1.));
#91 = DIRECTION('',(-0.954795929872,0.297262059974,0.));
#92 = PCURVE('',#33,#93);
#93 = DEFINITIONAL_REPRESENTATION('',(#94),#98);
#94 = LINE('',#95,#96);
#95 = CARTESIAN_POINT('',(-9.122954157548,-14.));
#96 = VECTOR('',#97,1.);
#97 = DIRECTION('',(1.,-0.));
#98 = ( GEOMETRIC_REPRESENTATION_CONTEXT(2) 
PARAMETRIC_REPRESENTATION_CONTEXT() REPRESENTATION_CONTEXT('2D SPACE',''
  ) );
#99 = PCURVE('',#100,#105);
#100 = PLANE('',#101);
#101 = AXIS2_PLACEMENT_3D('',#102,#103,#104);
#102 = CARTESIAN_POINT('',(0.,-7.82753412455E-16,14.));
#103 = DIRECTION('',(0.,0.,1.));
#104 = DIRECTION('',(1.,0.,-0.));
#105 = DEFINITIONAL_REPRESENTATION('',(#106),#114);
#106 = ( BOUNDED_CURVE() B_SPLINE_CURVE(2,(#107,#108,#109,#110,#111,#112
,#113),.UNSPECIFIED.,.T.,.F.) B_SPLINE_CURVE_WITH_KNOTS((1,2,2,2,2,1),(
    -2.094395102393,0.,2.094395102393,4.188790204786,6.28318530718,
8.377580409573),.UNSPECIFIED.) CURVE() GEOMETRIC_REPRESENTATION_ITEM() 
RATIONAL_B_SPLINE_CURVE((1.,0.5,1.,0.5,1.,0.5,1.)) REPRESENTATION_ITEM(
  '') );
#107 = CARTESIAN_POINT('',(-18.30821195529,5.7));
#108 = CARTESIAN_POINT('',(-8.435522352152,37.410753302311));
#109 = CARTESIAN_POINT('',(14.090450779219,13.005376651155));
#110 = CARTESIAN_POINT('',(36.61642391059,-11.4));
#111 = CARTESIAN_POINT('',(4.217761176076,-18.70537665115));
#112 = CARTESIAN_POINT('',(-28.18090155843,-26.01075330231));
#113 = CARTESIAN_POINT('',(-18.30821195529,5.7));
#114 = ( GEOMETRIC_REPRESENTATION_CONTEXT(2) 
PARAMETRIC_REPRESENTATION_CONTEXT() REPRESENTATION_CONTEXT('2D SPACE',''
  ) );
#115 = ORIENTED_EDGE('',*,*,#116,.T.);
#116 = EDGE_CURVE('',#84,#24,#117,.T.);
#117 = SURFACE_CURVE('',#118,(#122,#128),.PCURVE_S1.);
#118 = LINE('',#119,#120);
#119 = CARTESIAN_POINT('',(-17.8,7.130261215411,0.));
#120 = VECTOR('',#121,1.);
#121 = DIRECTION('',(-0.,-0.,-1.));
#122 = PCURVE('',#33,#123);
#123 = DEFINITIONAL_REPRESENTATION('',(#124),#127);
#124 = B_SPLINE_CURVE_WITH_KNOTS('',1,(#125,#126),.UNSPECIFIED.,.F.,.F.,
  (2,2),(-14.0000006,6.E-07),.PIECEWISE_BEZIER_KNOTS.);
#125 = CARTESIAN_POINT('',(-9.043774723176,-14.0000006));
#126 = CARTESIAN_POINT('',(-9.043774723176,6.E-07));
#127 = ( GEOMETRIC_REPRESENTATION_CONTEXT(2) 
PARAMETRIC_REPRESENTATION_CONTEXT() REPRESENTATION_CONTEXT('2D SPACE',''
  ) );
#128 = PCURVE('',#129,#134);
#129 = PLANE('',#130);
#130 = AXIS2_PLACEMENT_3D('',#131,#132,#133);
#131 = CARTESIAN_POINT('',(-17.8,-7.5,-1.));
#132 = DIRECTION('',(-1.,0.,0.));
#133 = DIRECTION('',(0.,1.,0.));
#134 = DEFINITIONAL_REPRESENTATION('',(#135),#138);
#135 = B_SPLINE_CURVE_WITH_KNOTS('',1,(#136,#137),.UNSPECIFIED.,.F.,.F.,
  (2,2),(-14.0000006,6.E-07),.PIECEWISE_BEZIER_KNOTS.);
#136 = CARTESIAN_POINT('',(14.630261215411,-15.0000006));
#137 = CARTESIAN_POINT('',(14.630261215411,-0.9999994));
#138 = ( GEOMETRIC_REPRESENTATION_CONTEXT(2) 
PARAMETRIC_REPRESENTATION_CONTEXT() REPRESENTATION_CONTEXT('2D SPACE',''
  ) );
#139 = FACE_BOUND('',#140,.F.);
#140 = EDGE_LOOP('',(#141));
#141 = ORIENTED_EDGE('',*,*,#142,.T.);
#142 = EDGE_CURVE('',#143,#143,#145,.T.);
#143 = VERTEX_POINT('',#144);
#144 = CARTESIAN_POINT('',(-2.7,-18.98395704272,7.));
#145 = SURFACE_CURVE('',#146,(#197,#251),.PCURVE_S1.);
#146 = B_SPLINE_CURVE_WITH_KNOTS('',7,(#147,#148,#149,#150,#151,#152,
    #153,#154,#155,#156,#157,#158,#159,#160,#161,#162,#163,#164,#165,
    #166,#167,#168,#169,#170,#171,#172,#173,#174,#175,#176,#177,#178,
    #179,#180,#181,#182,#183,#184,#185,#186,#187,#188,#189,#190,#191,
    #192,#193,#194,#195,#196),.UNSPECIFIED.,.T.,.F.,(8,6,6,6,6,6,6,6,8),
  (0.,0.133951597238,0.250998162131,0.358458401514,0.501179771865,
    0.634500728331,0.750996240924,0.857950560186,1.),.UNSPECIFIED.);
#147 = CARTESIAN_POINT('',(-2.7,-18.98395704272,7.));
#148 = CARTESIAN_POINT('',(-2.7,-18.98395704272,6.719775662957));
#149 = CARTESIAN_POINT('',(-2.666070168047,-18.98878266908,
    6.439894828195));
#150 = CARTESIAN_POINT('',(-2.598352912863,-18.99841407074,
    6.162669932633));
#151 = CARTESIAN_POINT('',(-2.496017107802,-19.01257829801,
    5.890677026853));
#152 = CARTESIAN_POINT('',(-2.357509266793,-19.030728874,5.627241623595)
  );
#153 = CARTESIAN_POINT('',(-2.180810268371,-19.05183026769,
    5.377049668723));
#154 = CARTESIAN_POINT('',(-1.774380909159,-19.09367693829,
    4.946259715536));
#155 = CARTESIAN_POINT('',(-1.549249582638,-19.11463638664,
    4.755661624876));
#156 = CARTESIAN_POINT('',(-1.289163499269,-19.13548289103,
    4.586660678147));
#157 = CARTESIAN_POINT('',(-0.997586051602,-19.15400307994,
    4.449123195911));
#158 = CARTESIAN_POINT('',(-0.680271597165,-19.1677689254,4.351352621571
    ));
#159 = CARTESIAN_POINT('',(-0.344740260772,-19.175,4.3));
#160 = CARTESIAN_POINT('',(0.316505409459,-19.175,4.3));
#161 = CARTESIAN_POINT('',(0.626198171819,-19.16890490429,4.343285495611
    ));
#162 = CARTESIAN_POINT('',(0.92162967541,-19.15718773632,4.426504326363)
  );
#163 = CARTESIAN_POINT('',(1.196293200512,-19.14115116283,4.544664147003
    ));
#164 = CARTESIAN_POINT('',(1.444986202438,-19.12267298579,4.691222451889
    ));
#165 = CARTESIAN_POINT('',(1.664263551188,-19.10357958092,4.858166744373
    ));
#166 = CARTESIAN_POINT('',(2.103323315152,-19.06095440917,5.272398267657
    ));
#167 = CARTESIAN_POINT('',(2.30700055532,-19.03730946903,5.534998438773)
  );
#168 = CARTESIAN_POINT('',(2.46619976976,-19.01669601332,5.814301879711)
  );
#169 = CARTESIAN_POINT('',(2.583564860231,-19.00051779819,6.10423768823)
  );
#170 = CARTESIAN_POINT('',(2.661115311413,-18.98948724816,6.400499118375
    ));
#171 = CARTESIAN_POINT('',(2.7,-18.98395704272,6.700017143228));
#172 = CARTESIAN_POINT('',(2.7,-18.98395704272,7.280224337043));
#173 = CARTESIAN_POINT('',(2.666070168047,-18.98878266908,7.560105171805
    ));
#174 = CARTESIAN_POINT('',(2.598352912863,-18.99841407074,7.837330067368
    ));
#175 = CARTESIAN_POINT('',(2.496017107802,-19.01257829801,8.109322973147
    ));
#176 = CARTESIAN_POINT('',(2.357509266793,-19.030728874,8.372758376405)
  );
#177 = CARTESIAN_POINT('',(2.180810268371,-19.05183026769,8.622950331277
    ));
#178 = CARTESIAN_POINT('',(1.774380909159,-19.09367693829,9.053740284464
    ));
#179 = CARTESIAN_POINT('',(1.549249582638,-19.11463638664,9.244338375124
    ));
#180 = CARTESIAN_POINT('',(1.289163499269,-19.13548289103,9.413339321853
    ));
#181 = CARTESIAN_POINT('',(0.997586051601,-19.15400307994,9.550876804088
    ));
#182 = CARTESIAN_POINT('',(0.680271597165,-19.1677689254,9.648647378429)
  );
#183 = CARTESIAN_POINT('',(0.344740260772,-19.175,9.7));
#184 = CARTESIAN_POINT('',(-0.316505409459,-19.175,9.7));
#185 = CARTESIAN_POINT('',(-0.626198171819,-19.16890490429,
    9.656714504389));
#186 = CARTESIAN_POINT('',(-0.921629675411,-19.15718773632,
    9.573495673637));
#187 = CARTESIAN_POINT('',(-1.196293200512,-19.14115116283,
    9.455335852997));
#188 = CARTESIAN_POINT('',(-1.444986202437,-19.12267298579,
    9.308777548113));
#189 = CARTESIAN_POINT('',(-1.664263551189,-19.10357958092,
    9.141833255626));
#190 = CARTESIAN_POINT('',(-2.103323311813,-19.0609544095,8.727601735493
    ));
#191 = CARTESIAN_POINT('',(-2.307000565371,-19.03730946802,
    8.465001548111));
#192 = CARTESIAN_POINT('',(-2.466199755998,-19.01669601474,
    8.185698145031));
#193 = CARTESIAN_POINT('',(-2.583564869918,-19.00051779718,
    7.895762286073));
#194 = CARTESIAN_POINT('',(-2.661115308441,-18.98948724848,
    7.599500896425));
#195 = CARTESIAN_POINT('',(-2.7,-18.98395704272,7.299982852804));
#196 = CARTESIAN_POINT('',(-2.7,-18.98395704272,7.));
#197 = PCURVE('',#33,#198);
#198 = DEFINITIONAL_REPRESENTATION('',(#199),#250);
#199 = B_SPLINE_CURVE_WITH_KNOTS('',7,(#200,#201,#202,#203,#204,#205,
    #206,#207,#208,#209,#210,#211,#212,#213,#214,#215,#216,#217,#218,
    #219,#220,#221,#222,#223,#224,#225,#226,#227,#228,#229,#230,#231,
    #232,#233,#234,#235,#236,#237,#238,#239,#240,#241,#242,#243,#244,
    #245,#246,#247,#248,#249),.UNSPECIFIED.,.F.,.F.,(8,6,6,6,6,6,6,6,8),
  (0.,0.133951597238,0.250998162131,0.358458401514,0.501179771865,
    0.634500728331,0.750996240924,0.857950560186,1.),.UNSPECIFIED.);
#200 = CARTESIAN_POINT('',(-4.571111134104,-7.));
#201 = CARTESIAN_POINT('',(-4.571111134104,-6.719775662957));
#202 = CARTESIAN_POINT('',(-4.57289842262,-6.439894828195));
#203 = CARTESIAN_POINT('',(-4.57646550756,-6.162669932632));
#204 = CARTESIAN_POINT('',(-4.581853271078,-5.890677026853));
#205 = CARTESIAN_POINT('',(-4.589137987738,-5.627241623595));
#206 = CARTESIAN_POINT('',(-4.59841730972,-5.377049668723));
#207 = CARTESIAN_POINT('',(-4.619725157574,-4.946259715536));
#208 = CARTESIAN_POINT('',(-4.631516236065,-4.755661624876));
#209 = CARTESIAN_POINT('',(-4.645121710162,-4.586660678147));
#210 = CARTESIAN_POINT('',(-4.660354183117,-4.449123195911));
#211 = CARTESIAN_POINT('',(-4.676911964716,-4.351352621571));
#212 = CARTESIAN_POINT('',(-4.694410348793,-4.3));
#213 = CARTESIAN_POINT('',(-4.728895129509,-4.3));
#214 = CARTESIAN_POINT('',(-4.745045997249,-4.343285495611));
#215 = CARTESIAN_POINT('',(-4.760460424908,-4.426504326363));
#216 = CARTESIAN_POINT('',(-4.774805187938,-4.544664147003));
#217 = CARTESIAN_POINT('',(-4.787808868688,-4.691222451889));
#218 = CARTESIAN_POINT('',(-4.799287152823,-4.858166744373));
#219 = CARTESIAN_POINT('',(-4.822292315691,-5.272398267657));
#220 = CARTESIAN_POINT('',(-4.83298378484,-5.534998438773));
#221 = CARTESIAN_POINT('',(-4.841354937609,-5.814301879711));
#222 = CARTESIAN_POINT('',(-4.847533472562,-6.104237688229));
#223 = CARTESIAN_POINT('',(-4.85161853683,-6.400499118376));
#224 = CARTESIAN_POINT('',(-4.853666826665,-6.700017143228));
#225 = CARTESIAN_POINT('',(-4.853666826665,-7.280224337043));
#226 = CARTESIAN_POINT('',(-4.85187953815,-7.560105171805));
#227 = CARTESIAN_POINT('',(-4.84831245321,-7.837330067368));
#228 = CARTESIAN_POINT('',(-4.842924689691,-8.109322973147));
#229 = CARTESIAN_POINT('',(-4.835639973031,-8.372758376405));
#230 = CARTESIAN_POINT('',(-4.82636065105,-8.622950331277));
#231 = CARTESIAN_POINT('',(-4.805052803196,-9.053740284464));
#232 = CARTESIAN_POINT('',(-4.793261724704,-9.244338375124));
#233 = CARTESIAN_POINT('',(-4.779656250608,-9.413339321853));
#234 = CARTESIAN_POINT('',(-4.764423777652,-9.550876804089));
#235 = CARTESIAN_POINT('',(-4.747865996053,-9.648647378429));
#236 = CARTESIAN_POINT('',(-4.730367611976,-9.7));
#237 = CARTESIAN_POINT('',(-4.69588283126,-9.7));
#238 = CARTESIAN_POINT('',(-4.67973196352,-9.65671450439));
#239 = CARTESIAN_POINT('',(-4.664317535861,-9.573495673637));
#240 = CARTESIAN_POINT('',(-4.649972772832,-9.455335852997));
#241 = CARTESIAN_POINT('',(-4.636969092082,-9.308777548113));
#242 = CARTESIAN_POINT('',(-4.625490807946,-9.141833255626));
#243 = CARTESIAN_POINT('',(-4.602485645253,-8.727601735493));
#244 = CARTESIAN_POINT('',(-4.591794175403,-8.465001548111));
#245 = CARTESIAN_POINT('',(-4.583423023882,-8.185698145031));
#246 = CARTESIAN_POINT('',(-4.5772444877,-7.895762286073));
#247 = CARTESIAN_POINT('',(-4.573159424095,-7.599500896425));
#248 = CARTESIAN_POINT('',(-4.571111134104,-7.299982852804));
#249 = CARTESIAN_POINT('',(-4.571111134104,-7.));
#250 = ( GEOMETRIC_REPRESENTATION_CONTEXT(2) 
PARAMETRIC_REPRESENTATION_CONTEXT() REPRESENTATION_CONTEXT('2D SPACE',''
  ) );
#251 = PCURVE('',#252,#257);
#252 = CYLINDRICAL_SURFACE('',#253,2.7);
#253 = AXIS2_PLACEMENT_3D('',#254,#255,#256);
#254 = CARTESIAN_POINT('',(0.,0.,7.));
#255 = DIRECTION('',(-1.836970198721E-16,-1.,0.));
#256 = DIRECTION('',(-1.,1.836970198721E-16,0.));
#257 = DEFINITIONAL_REPRESENTATION('',(#258),#309);
#258 = B_SPLINE_CURVE_WITH_KNOTS('',7,(#259,#260,#261,#262,#263,#264,
    #265,#266,#267,#268,#269,#270,#271,#272,#273,#274,#275,#276,#277,
    #278,#279,#280,#281,#282,#283,#284,#285,#286,#287,#288,#289,#290,
    #291,#292,#293,#294,#295,#296,#297,#298,#299,#300,#301,#302,#303,
    #304,#305,#306,#307,#308),.UNSPECIFIED.,.F.,.F.,(8,6,6,6,6,6,6,6,8),
  (0.,0.133951597238,0.250998162131,0.358458401514,0.501179771865,
    0.634500728331,0.750996240924,0.857950560186,1.),.UNSPECIFIED.);
#259 = CARTESIAN_POINT('',(0.,18.983957042724));
#260 = CARTESIAN_POINT('',(0.103786791497,18.983957042724));
#261 = CARTESIAN_POINT('',(0.207446070256,18.988782669085));
#262 = CARTESIAN_POINT('',(0.311949290655,18.998414070745));
#263 = CARTESIAN_POINT('',(0.418142680409,19.012578298019));
#264 = CARTESIAN_POINT('',(0.526934040879,19.030728874006));
#265 = CARTESIAN_POINT('',(0.639245817385,19.051830267694));
#266 = CARTESIAN_POINT('',(0.858599152994,19.093676938291));
#267 = CARTESIAN_POINT('',(0.967166097481,19.114636386647));
#268 = CARTESIAN_POINT('',(1.08054643673,19.135482891032));
#269 = CARTESIAN_POINT('',(1.197919817916,19.154003079942));
#270 = CARTESIAN_POINT('',(1.318843998202,19.167768925409));
#271 = CARTESIAN_POINT('',(1.443114748731,19.175));
#272 = CARTESIAN_POINT('',(1.68802055252,19.175));
#273 = CARTESIAN_POINT('',(1.802721453246,19.168904904292));
#274 = CARTESIAN_POINT('',(1.914772145179,19.157187736327));
#275 = CARTESIAN_POINT('',(2.023881579173,19.141151162834));
#276 = CARTESIAN_POINT('',(2.129574301216,19.12267298579));
#277 = CARTESIAN_POINT('',(2.231078365023,19.103579580921));
#278 = CARTESIAN_POINT('',(2.454642594052,19.060954409178));
#279 = CARTESIAN_POINT('',(2.576256720891,19.037309469031));
#280 = CARTESIAN_POINT('',(2.693518327828,19.016696013325));
#281 = CARTESIAN_POINT('',(2.807587405389,19.000517798197));
#282 = CARTESIAN_POINT('',(2.919555629968,18.989487248169));
#283 = CARTESIAN_POINT('',(3.030487891822,18.983957042724));
#284 = CARTESIAN_POINT('',(3.245379445087,18.983957042724));
#285 = CARTESIAN_POINT('',(3.349038723846,18.988782669085));
#286 = CARTESIAN_POINT('',(3.453541944245,18.998414070745));
#287 = CARTESIAN_POINT('',(3.559735333998,19.012578298019));
#288 = CARTESIAN_POINT('',(3.668526694469,19.030728874006));
#289 = CARTESIAN_POINT('',(3.780838470975,19.051830267694));
#290 = CARTESIAN_POINT('',(4.000191806584,19.093676938292));
#291 = CARTESIAN_POINT('',(4.10875875107,19.114636386647));
#292 = CARTESIAN_POINT('',(4.22213909032,19.135482891032));
#293 = CARTESIAN_POINT('',(4.339512471506,19.154003079942));
#294 = CARTESIAN_POINT('',(4.460436651792,19.167768925409));
#295 = CARTESIAN_POINT('',(4.584707402321,19.175));
#296 = CARTESIAN_POINT('',(4.82961320611,19.175));
#297 = CARTESIAN_POINT('',(4.944314106835,19.168904904292));
#298 = CARTESIAN_POINT('',(5.05636479877,19.157187736327));
#299 = CARTESIAN_POINT('',(5.165474232763,19.141151162834));
#300 = CARTESIAN_POINT('',(5.271166954806,19.12267298579));
#301 = CARTESIAN_POINT('',(5.372671018613,19.103579580921));
#302 = CARTESIAN_POINT('',(5.596235245941,19.060954409502));
#303 = CARTESIAN_POINT('',(5.717849380866,19.037309468023));
#304 = CARTESIAN_POINT('',(5.835110970256,19.016696014742));
#305 = CARTESIAN_POINT('',(5.949180069848,19.00051779718));
#306 = CARTESIAN_POINT('',(6.061148277675,18.989487248486));
#307 = CARTESIAN_POINT('',(6.172080546882,18.983957042724));
#308 = CARTESIAN_POINT('',(6.28318530718,18.983957042724));
#309 = ( GEOMETRIC_REPRESENTATION_CONTEXT(2) 
PARAMETRIC_REPRESENTATION_CONTEXT() REPRESENTATION_CONTEXT('2D SPACE',''
  ) );
#310 = FACE_BOUND('',#311,.F.);
#311 = EDGE_LOOP('',(#312));
#312 = ORIENTED_EDGE('',*,*,#313,.T.);
#313 = EDGE_CURVE('',#314,#314,#316,.T.);
#314 = VERTEX_POINT('',#315);
#315 = CARTESIAN_POINT('',(2.7,18.983957042724,7.));
#316 = SURFACE_CURVE('',#317,(#368,#422),.PCURVE_S1.);
#317 = B_SPLINE_CURVE_WITH_KNOTS('',7,(#318,#319,#320,#321,#322,#323,
    #324,#325,#326,#327,#328,#329,#330,#331,#332,#333,#334,#335,#336,
    #337,#338,#339,#340,#341,#342,#343,#344,#345,#346,#347,#348,#349,
    #350,#351,#352,#353,#354,#355,#356,#357,#358,#359,#360,#361,#362,
    #363,#364,#365,#366,#367),.UNSPECIFIED.,.T.,.F.,(8,6,6,6,6,6,6,6,8),
  (0.,0.13395159698,0.250998161649,0.358458400836,0.501179770917,
    0.63450072713,0.750996239502,0.857950558562,1.),.UNSPECIFIED.);
#318 = CARTESIAN_POINT('',(2.7,18.983957042724,7.));
#319 = CARTESIAN_POINT('',(2.7,18.983957042724,6.719775662957));
#320 = CARTESIAN_POINT('',(2.666070168047,18.988782669085,6.439894828195
    ));
#321 = CARTESIAN_POINT('',(2.598352912863,18.998414070745,6.162669932632
    ));
#322 = CARTESIAN_POINT('',(2.496017107802,19.012578298019,5.890677026853
    ));
#323 = CARTESIAN_POINT('',(2.357509266793,19.030728874006,5.627241623595
    ));
#324 = CARTESIAN_POINT('',(2.180810268371,19.051830267694,5.377049668723
    ));
#325 = CARTESIAN_POINT('',(1.774380909159,19.093676938291,4.946259715536
    ));
#326 = CARTESIAN_POINT('',(1.549249582638,19.114636386647,4.755661624876
    ));
#327 = CARTESIAN_POINT('',(1.289163499268,19.135482891032,4.586660678147
    ));
#328 = CARTESIAN_POINT('',(0.997586051602,19.154003079942,4.449123195911
    ));
#329 = CARTESIAN_POINT('',(0.680271597165,19.167768925409,4.351352621571
    ));
#330 = CARTESIAN_POINT('',(0.344740260773,19.175,4.3));
#331 = CARTESIAN_POINT('',(-0.316505409493,19.175,4.3));
#332 = CARTESIAN_POINT('',(-0.626198171778,19.168904904291,4.34328549562
    ));
#333 = CARTESIAN_POINT('',(-0.921629675399,19.15718773633,4.426504326338
    ));
#334 = CARTESIAN_POINT('',(-1.19629320054,19.141151162831,4.544664147017
    ));
#335 = CARTESIAN_POINT('',(-1.444986202445,19.122672985789,
    4.691222451902));
#336 = CARTESIAN_POINT('',(-1.664263551173,19.103579580923,
    4.858166744359));
#337 = CARTESIAN_POINT('',(-2.103323315153,19.060954409178,
    5.272398267657));
#338 = CARTESIAN_POINT('',(-2.30700055532,19.037309469031,5.534998438772
    ));
#339 = CARTESIAN_POINT('',(-2.46619976976,19.016696013325,5.814301879711
    ));
#340 = CARTESIAN_POINT('',(-2.583564860231,19.000517798197,6.10423768823
    ));
#341 = CARTESIAN_POINT('',(-2.661115311413,18.989487248169,
    6.400499118375));
#342 = CARTESIAN_POINT('',(-2.7,18.983957042724,6.700017143228));
#343 = CARTESIAN_POINT('',(-2.7,18.983957042724,7.280224337043));
#344 = CARTESIAN_POINT('',(-2.666070168047,18.988782669085,
    7.560105171806));
#345 = CARTESIAN_POINT('',(-2.598352912864,18.998414070745,
    7.837330067366));
#346 = CARTESIAN_POINT('',(-2.496017107802,19.012578298019,
    8.109322973148));
#347 = CARTESIAN_POINT('',(-2.357509266794,19.030728874006,
    8.372758376404));
#348 = CARTESIAN_POINT('',(-2.18081026837,19.051830267694,8.622950331277
    ));
#349 = CARTESIAN_POINT('',(-1.774380909159,19.093676938292,
    9.053740284464));
#350 = CARTESIAN_POINT('',(-1.549249582638,19.114636386647,
    9.244338375124));
#351 = CARTESIAN_POINT('',(-1.289163499268,19.135482891032,
    9.413339321853));
#352 = CARTESIAN_POINT('',(-0.997586051603,19.154003079942,
    9.550876804089));
#353 = CARTESIAN_POINT('',(-0.680271597164,19.167768925409,
    9.648647378429));
#354 = CARTESIAN_POINT('',(-0.344740260773,19.175,9.7));
#355 = CARTESIAN_POINT('',(0.316505409459,19.175,9.7));
#356 = CARTESIAN_POINT('',(0.626198171819,19.168904904292,9.656714504389
    ));
#357 = CARTESIAN_POINT('',(0.921629675411,19.157187736326,9.573495673637
    ));
#358 = CARTESIAN_POINT('',(1.196293200512,19.141151162834,9.455335852998
    ));
#359 = CARTESIAN_POINT('',(1.444986202437,19.12267298579,9.308777548112)
  );
#360 = CARTESIAN_POINT('',(1.664263551188,19.103579580921,9.141833255626
    ));
#361 = CARTESIAN_POINT('',(2.103323315152,19.060954409178,8.727601732343
    ));
#362 = CARTESIAN_POINT('',(2.30700055532,19.037309469031,8.465001561228)
  );
#363 = CARTESIAN_POINT('',(2.46619976976,19.016696013325,8.185698120289)
  );
#364 = CARTESIAN_POINT('',(2.583564860231,19.000517798197,7.895762311771
    ));
#365 = CARTESIAN_POINT('',(2.661115311413,18.989487248169,7.599500881625
    ));
#366 = CARTESIAN_POINT('',(2.7,18.983957042724,7.299982856772));
#367 = CARTESIAN_POINT('',(2.7,18.983957042724,7.));
#368 = PCURVE('',#33,#369);
#369 = DEFINITIONAL_REPRESENTATION('',(#370),#421);
#370 = B_SPLINE_CURVE_WITH_KNOTS('',7,(#371,#372,#373,#374,#375,#376,
    #377,#378,#379,#380,#381,#382,#383,#384,#385,#386,#387,#388,#389,
    #390,#391,#392,#393,#394,#395,#396,#397,#398,#399,#400,#401,#402,
    #403,#404,#405,#406,#407,#408,#409,#410,#411,#412,#413,#414,#415,
    #416,#417,#418,#419,#420),.UNSPECIFIED.,.T.,.F.,(8,6,6,6,6,6,6,6,8),
  (0.,0.13395159698,0.250998161649,0.358458400836,0.501179770917,
    0.63450072713,0.750996239502,0.857950558562,1.),.UNSPECIFIED.);
#371 = CARTESIAN_POINT('',(-7.712703787694,-7.));
#372 = CARTESIAN_POINT('',(-7.712703787694,-6.719775662957));
#373 = CARTESIAN_POINT('',(-7.714491076209,-6.439894828195));
#374 = CARTESIAN_POINT('',(-7.718058161149,-6.162669932633));
#375 = CARTESIAN_POINT('',(-7.723445924668,-5.890677026853));
#376 = CARTESIAN_POINT('',(-7.730730641328,-5.627241623595));
#377 = CARTESIAN_POINT('',(-7.740009963309,-5.377049668723));
#378 = CARTESIAN_POINT('',(-7.761317811164,-4.946259715536));
#379 = CARTESIAN_POINT('',(-7.773108889655,-4.755661624876));
#380 = CARTESIAN_POINT('',(-7.786714363752,-4.586660678147));
#381 = CARTESIAN_POINT('',(-7.801946836707,-4.449123195911));
#382 = CARTESIAN_POINT('',(-7.818504618306,-4.351352621571));
#383 = CARTESIAN_POINT('',(-7.836003002383,-4.3));
#384 = CARTESIAN_POINT('',(-7.870487783101,-4.3));
#385 = CARTESIAN_POINT('',(-7.886638650837,-4.34328549562));
#386 = CARTESIAN_POINT('',(-7.902053078497,-4.426504326338));
#387 = CARTESIAN_POINT('',(-7.916397841529,-4.544664147017));
#388 = CARTESIAN_POINT('',(-7.929401522278,-4.691222451902));
#389 = CARTESIAN_POINT('',(-7.940879806413,-4.858166744359));
#390 = CARTESIAN_POINT('',(-7.963884969281,-5.272398267657));
#391 = CARTESIAN_POINT('',(-7.97457643843,-5.534998438773));
#392 = CARTESIAN_POINT('',(-7.982947591199,-5.814301879711));
#393 = CARTESIAN_POINT('',(-7.989126126152,-6.10423768823));
#394 = CARTESIAN_POINT('',(-7.99321119042,-6.400499118375));
#395 = CARTESIAN_POINT('',(-7.995259480255,-6.700017143228));
#396 = CARTESIAN_POINT('',(-7.995259480255,-7.280224337043));
#397 = CARTESIAN_POINT('',(-7.993472191739,-7.560105171806));
#398 = CARTESIAN_POINT('',(-7.9899051068,-7.837330067366));
#399 = CARTESIAN_POINT('',(-7.984517343281,-8.109322973148));
#400 = CARTESIAN_POINT('',(-7.977232626621,-8.372758376404));
#401 = CARTESIAN_POINT('',(-7.96795330464,-8.622950331277));
#402 = CARTESIAN_POINT('',(-7.946645456785,-9.053740284464));
#403 = CARTESIAN_POINT('',(-7.934854378294,-9.244338375124));
#404 = CARTESIAN_POINT('',(-7.921248904197,-9.413339321853));
#405 = CARTESIAN_POINT('',(-7.906016431242,-9.550876804089));
#406 = CARTESIAN_POINT('',(-7.889458649643,-9.648647378429));
#407 = CARTESIAN_POINT('',(-7.871960265566,-9.7));
#408 = CARTESIAN_POINT('',(-7.83747548485,-9.7));
#409 = CARTESIAN_POINT('',(-7.82132461711,-9.656714504389));
#410 = CARTESIAN_POINT('',(-7.805910189451,-9.573495673637));
#411 = CARTESIAN_POINT('',(-7.791565426422,-9.455335852997));
#412 = CARTESIAN_POINT('',(-7.778561745671,-9.308777548112));
#413 = CARTESIAN_POINT('',(-7.767083461536,-9.141833255626));
#414 = CARTESIAN_POINT('',(-7.744078298668,-8.727601732343));
#415 = CARTESIAN_POINT('',(-7.733386829519,-8.465001561228));
#416 = CARTESIAN_POINT('',(-7.72501567675,-8.185698120289));
#417 = CARTESIAN_POINT('',(-7.718837141797,-7.895762311771));
#418 = CARTESIAN_POINT('',(-7.714752077529,-7.599500881625));
#419 = CARTESIAN_POINT('',(-7.712703787694,-7.299982856772));
#420 = CARTESIAN_POINT('',(-7.712703787694,-7.));
#421 = ( GEOMETRIC_REPRESENTATION_CONTEXT(2) 
PARAMETRIC_REPRESENTATION_CONTEXT() REPRESENTATION_CONTEXT('2D SPACE',''
  ) );
#422 = PCURVE('',#423,#428);
#423 = CYLINDRICAL_SURFACE('',#424,2.7);
#424 = AXIS2_PLACEMENT_3D('',#425,#426,#427);
#425 = CARTESIAN_POINT('',(0.,0.,7.));
#426 = DIRECTION('',(6.123233995737E-17,1.,0.));
#427 = DIRECTION('',(1.,-6.123233995737E-17,0.));
#428 = DEFINITIONAL_REPRESENTATION('',(#429),#480);
#429 = B_SPLINE_CURVE_WITH_KNOTS('',7,(#430,#431,#432,#433,#434,#435,
    #436,#437,#438,#439,#440,#441,#442,#443,#444,#445,#446,#447,#448,
    #449,#450,#451,#452,#453,#454,#455,#456,#457,#458,#459,#460,#461,
    #462,#463,#464,#465,#466,#467,#468,#469,#470,#471,#472,#473,#474,
    #475,#476,#477,#478,#479),.UNSPECIFIED.,.F.,.F.,(8,6,6,6,6,6,6,6,8),
  (0.,0.13395159698,0.250998161649,0.358458400836,0.501179770917,
    0.63450072713,0.750996239502,0.857950558562,1.),.UNSPECIFIED.);
#430 = CARTESIAN_POINT('',(0.,18.983957042724));
#431 = CARTESIAN_POINT('',(0.103786791498,18.983957042724));
#432 = CARTESIAN_POINT('',(0.207446070256,18.988782669085));
#433 = CARTESIAN_POINT('',(0.311949290655,18.998414070745));
#434 = CARTESIAN_POINT('',(0.418142680409,19.012578298019));
#435 = CARTESIAN_POINT('',(0.526934040879,19.030728874006));
#436 = CARTESIAN_POINT('',(0.639245817385,19.051830267694));
#437 = CARTESIAN_POINT('',(0.858599152994,19.093676938292));
#438 = CARTESIAN_POINT('',(0.967166097481,19.114636386647));
#439 = CARTESIAN_POINT('',(1.08054643673,19.135482891032));
#440 = CARTESIAN_POINT('',(1.197919817916,19.154003079942));
#441 = CARTESIAN_POINT('',(1.318843998202,19.167768925409));
#442 = CARTESIAN_POINT('',(1.443114748731,19.175));
#443 = CARTESIAN_POINT('',(1.688020552533,19.175));
#444 = CARTESIAN_POINT('',(1.802721453231,19.168904904291));
#445 = CARTESIAN_POINT('',(1.914772145174,19.15718773633));
#446 = CARTESIAN_POINT('',(2.023881579183,19.141151162831));
#447 = CARTESIAN_POINT('',(2.129574301222,19.122672985789));
#448 = CARTESIAN_POINT('',(2.231078365015,19.103579580923));
#449 = CARTESIAN_POINT('',(2.454642594052,19.060954409178));
#450 = CARTESIAN_POINT('',(2.57625672089,19.037309469031));
#451 = CARTESIAN_POINT('',(2.693518327828,19.016696013325));
#452 = CARTESIAN_POINT('',(2.807587405389,19.000517798197));
#453 = CARTESIAN_POINT('',(2.919555629968,18.989487248169));
#454 = CARTESIAN_POINT('',(3.030487891822,18.983957042724));
#455 = CARTESIAN_POINT('',(3.245379445087,18.983957042724));
#456 = CARTESIAN_POINT('',(3.349038723846,18.988782669085));
#457 = CARTESIAN_POINT('',(3.453541944244,18.998414070745));
#458 = CARTESIAN_POINT('',(3.559735333999,19.012578298019));
#459 = CARTESIAN_POINT('',(3.668526694468,19.030728874006));
#460 = CARTESIAN_POINT('',(3.780838470975,19.051830267694));
#461 = CARTESIAN_POINT('',(4.000191806584,19.093676938292));
#462 = CARTESIAN_POINT('',(4.10875875107,19.114636386647));
#463 = CARTESIAN_POINT('',(4.222139090321,19.135482891032));
#464 = CARTESIAN_POINT('',(4.339512471505,19.154003079942));
#465 = CARTESIAN_POINT('',(4.460436651792,19.167768925409));
#466 = CARTESIAN_POINT('',(4.584707402321,19.175));
#467 = CARTESIAN_POINT('',(4.82961320611,19.175));
#468 = CARTESIAN_POINT('',(4.944314106836,19.168904904292));
#469 = CARTESIAN_POINT('',(5.056364798769,19.157187736326));
#470 = CARTESIAN_POINT('',(5.165474232763,19.141151162834));
#471 = CARTESIAN_POINT('',(5.271166954806,19.12267298579));
#472 = CARTESIAN_POINT('',(5.372671018613,19.103579580921));
#473 = CARTESIAN_POINT('',(5.596235247641,19.060954409178));
#474 = CARTESIAN_POINT('',(5.71784937448,19.037309469031));
#475 = CARTESIAN_POINT('',(5.835110981418,19.016696013325));
#476 = CARTESIAN_POINT('',(5.949180058979,19.000517798197));
#477 = CARTESIAN_POINT('',(6.061148283557,18.989487248169));
#478 = CARTESIAN_POINT('',(6.172080545412,18.983957042724));
#479 = CARTESIAN_POINT('',(6.28318530718,18.983957042724));
#480 = ( GEOMETRIC_REPRESENTATION_CONTEXT(2) 
PARAMETRIC_REPRESENTATION_CONTEXT() REPRESENTATION_CONTEXT('2D SPACE',''
  ) );
#481 = ADVANCED_FACE('',(#482),#45,.F.);
#482 = FACE_BOUND('',#483,.F.);
#483 = EDGE_LOOP('',(#484,#505,#506,#527,#553,#582));
#484 = ORIENTED_EDGE('',*,*,#485,.T.);
#485 = EDGE_CURVE('',#486,#22,#488,.T.);
#486 = VERTEX_POINT('',#487);
#487 = CARTESIAN_POINT('',(-17.8,-5.7,0.));
#488 = SURFACE_CURVE('',#489,(#493,#499),.PCURVE_S1.);
#489 = LINE('',#490,#491);
#490 = CARTESIAN_POINT('',(-17.8,-3.75,0.));
#491 = VECTOR('',#492,1.);
#492 = DIRECTION('',(0.,-1.,0.));
#493 = PCURVE('',#45,#494);
#494 = DEFINITIONAL_REPRESENTATION('',(#495),#498);
#495 = B_SPLINE_CURVE_WITH_KNOTS('',1,(#496,#497),.UNSPECIFIED.,.F.,.F.,
  (2,2),(-11.25,3.75),.PIECEWISE_BEZIER_KNOTS.);
#496 = CARTESIAN_POINT('',(-17.8,7.5));
#497 = CARTESIAN_POINT('',(-17.8,-7.5));
#498 = ( GEOMETRIC_REPRESENTATION_CONTEXT(2) 
PARAMETRIC_REPRESENTATION_CONTEXT() REPRESENTATION_CONTEXT('2D SPACE',''
  ) );
#499 = PCURVE('',#72,#500);
#500 = DEFINITIONAL_REPRESENTATION('',(#501),#504);
#501 = B_SPLINE_CURVE_WITH_KNOTS('',1,(#502,#503),.UNSPECIFIED.,.F.,.F.,
  (2,2),(-11.25,3.75),.PIECEWISE_BEZIER_KNOTS.);
#502 = CARTESIAN_POINT('',(15.,-1.));
#503 = CARTESIAN_POINT('',(0.,-1.));
#504 = ( GEOMETRIC_REPRESENTATION_CONTEXT(2) 
PARAMETRIC_REPRESENTATION_CONTEXT() REPRESENTATION_CONTEXT('2D SPACE',''
  ) );
#505 = ORIENTED_EDGE('',*,*,#21,.T.);
#506 = ORIENTED_EDGE('',*,*,#507,.T.);
#507 = EDGE_CURVE('',#24,#508,#510,.T.);
#508 = VERTEX_POINT('',#509);
#509 = CARTESIAN_POINT('',(-17.8,5.7,0.));
#510 = SURFACE_CURVE('',#511,(#515,#521),.PCURVE_S1.);
#511 = LINE('',#512,#513);
#512 = CARTESIAN_POINT('',(-17.8,-3.75,0.));
#513 = VECTOR('',#514,1.);
#514 = DIRECTION('',(0.,-1.,0.));
#515 = PCURVE('',#45,#516);
#516 = DEFINITIONAL_REPRESENTATION('',(#517),#520);
#517 = B_SPLINE_CURVE_WITH_KNOTS('',1,(#518,#519),.UNSPECIFIED.,.F.,.F.,
  (2,2),(-11.25,3.75),.PIECEWISE_BEZIER_KNOTS.);
#518 = CARTESIAN_POINT('',(-17.8,7.5));
#519 = CARTESIAN_POINT('',(-17.8,-7.5));
#520 = ( GEOMETRIC_REPRESENTATION_CONTEXT(2) 
PARAMETRIC_REPRESENTATION_CONTEXT() REPRESENTATION_CONTEXT('2D SPACE',''
  ) );
#521 = PCURVE('',#129,#522);
#522 = DEFINITIONAL_REPRESENTATION('',(#523),#526);
#523 = B_SPLINE_CURVE_WITH_KNOTS('',1,(#524,#525),.UNSPECIFIED.,.F.,.F.,
  (2,2),(-11.25,3.75),.PIECEWISE_BEZIER_KNOTS.);
#524 = CARTESIAN_POINT('',(15.,-1.));
#525 = CARTESIAN_POINT('',(0.,-1.));
#526 = ( GEOMETRIC_REPRESENTATION_CONTEXT(2) 
PARAMETRIC_REPRESENTATION_CONTEXT() REPRESENTATION_CONTEXT('2D SPACE',''
  ) );
#527 = ORIENTED_EDGE('',*,*,#528,.T.);
#528 = EDGE_CURVE('',#508,#529,#531,.T.);
#529 = VERTEX_POINT('',#530);
#530 = CARTESIAN_POINT('',(-13.87479729581,5.7,0.));
#531 = SURFACE_CURVE('',#532,(#536,#542),.PCURVE_S1.);
#532 = LINE('',#533,#534);
#533 = CARTESIAN_POINT('',(0.,5.7,0.));
#534 = VECTOR('',#535,1.);
#535 = DIRECTION('',(1.,0.,-0.));
#536 = PCURVE('',#45,#537);
#537 = DEFINITIONAL_REPRESENTATION('',(#538),#541);
#538 = B_SPLINE_CURVE_WITH_KNOTS('',1,(#539,#540),.UNSPECIFIED.,.F.,.F.,
  (2,2),(-19.175,0.),.PIECEWISE_BEZIER_KNOTS.);
#539 = CARTESIAN_POINT('',(-19.175,5.7));
#540 = CARTESIAN_POINT('',(0.,5.7));
#541 = ( GEOMETRIC_REPRESENTATION_CONTEXT(2) 
PARAMETRIC_REPRESENTATION_CONTEXT() REPRESENTATION_CONTEXT('2D SPACE',''
  ) );
#542 = PCURVE('',#543,#548);
#543 = PLANE('',#544);
#544 = AXIS2_PLACEMENT_3D('',#545,#546,#547);
#545 = CARTESIAN_POINT('',(0.,5.7,-1.));
#546 = DIRECTION('',(0.,-1.,0.));
#547 = DIRECTION('',(-1.,0.,0.));
#548 = DEFINITIONAL_REPRESENTATION('',(#549),#552);
#549 = B_SPLINE_CURVE_WITH_KNOTS('',1,(#550,#551),.UNSPECIFIED.,.F.,.F.,
  (2,2),(-19.175,0.),.PIECEWISE_BEZIER_KNOTS.);
#550 = CARTESIAN_POINT('',(19.175,-1.));
#551 = CARTESIAN_POINT('',(0.,-1.));
#552 = ( GEOMETRIC_REPRESENTATION_CONTEXT(2) 
PARAMETRIC_REPRESENTATION_CONTEXT() REPRESENTATION_CONTEXT('2D SPACE',''
  ) );
#553 = ORIENTED_EDGE('',*,*,#554,.F.);
#554 = EDGE_CURVE('',#555,#529,#557,.T.);
#555 = VERTEX_POINT('',#556);
#556 = CARTESIAN_POINT('',(-13.87479729581,-5.7,0.));
#557 = SURFACE_CURVE('',#558,(#563,#570),.PCURVE_S1.);
#558 = CIRCLE('',#559,15.);
#559 = AXIS2_PLACEMENT_3D('',#560,#561,#562);
#560 = CARTESIAN_POINT('',(9.078642516883E-14,1.852784187119E-16,0.));
#561 = DIRECTION('',(0.,0.,1.));
#562 = DIRECTION('',(-0.924986486388,-0.38,0.));
#563 = PCURVE('',#45,#564);
#564 = DEFINITIONAL_REPRESENTATION('',(#565),#569);
#565 = CIRCLE('',#566,15.);
#566 = AXIS2_PLACEMENT_2D('',#567,#568);
#567 = CARTESIAN_POINT('',(9.078642516883E-14,9.680318311669E-16));
#568 = DIRECTION('',(-0.924986486388,-0.38));
#569 = ( GEOMETRIC_REPRESENTATION_CONTEXT(2) 
PARAMETRIC_REPRESENTATION_CONTEXT() REPRESENTATION_CONTEXT('2D SPACE',''
  ) );
#570 = PCURVE('',#571,#576);
#571 = CYLINDRICAL_SURFACE('',#572,15.);
#572 = AXIS2_PLACEMENT_3D('',#573,#574,#575);
#573 = CARTESIAN_POINT('',(9.078642516883E-14,1.852784187119E-16,0.));
#574 = DIRECTION('',(-0.,-0.,-1.));
#575 = DIRECTION('',(1.,0.,0.));
#576 = DEFINITIONAL_REPRESENTATION('',(#577),#581);
#577 = LINE('',#578,#579);
#578 = CARTESIAN_POINT('',(-3.531388950064,0.));
#579 = VECTOR('',#580,1.);
#580 = DIRECTION('',(-1.,0.));
#581 = ( GEOMETRIC_REPRESENTATION_CONTEXT(2) 
PARAMETRIC_REPRESENTATION_CONTEXT() REPRESENTATION_CONTEXT('2D SPACE',''
  ) );
#582 = ORIENTED_EDGE('',*,*,#583,.T.);
#583 = EDGE_CURVE('',#555,#486,#584,.T.);
#584 = SURFACE_CURVE('',#585,(#589,#595),.PCURVE_S1.);
#585 = LINE('',#586,#587);
#586 = CARTESIAN_POINT('',(-11.5875,-5.7,0.));
#587 = VECTOR('',#588,1.);
#588 = DIRECTION('',(-1.,0.,0.));
#589 = PCURVE('',#45,#590);
#590 = DEFINITIONAL_REPRESENTATION('',(#591),#594);
#591 = B_SPLINE_CURVE_WITH_KNOTS('',1,(#592,#593),.UNSPECIFIED.,.F.,.F.,
  (2,2),(-11.5875,7.5875),.PIECEWISE_BEZIER_KNOTS.);
#592 = CARTESIAN_POINT('',(0.,-5.7));
#593 = CARTESIAN_POINT('',(-19.175,-5.7));
#594 = ( GEOMETRIC_REPRESENTATION_CONTEXT(2) 
PARAMETRIC_REPRESENTATION_CONTEXT() REPRESENTATION_CONTEXT('2D SPACE',''
  ) );
#595 = PCURVE('',#596,#601);
#596 = PLANE('',#597);
#597 = AXIS2_PLACEMENT_3D('',#598,#599,#600);
#598 = CARTESIAN_POINT('',(-23.175,-5.7,-1.));
#599 = DIRECTION('',(0.,1.,0.));
#600 = DIRECTION('',(1.,0.,0.));
#601 = DEFINITIONAL_REPRESENTATION('',(#602),#605);
#602 = B_SPLINE_CURVE_WITH_KNOTS('',1,(#603,#604),.UNSPECIFIED.,.F.,.F.,
  (2,2),(-11.5875,7.5875),.PIECEWISE_BEZIER_KNOTS.);
#603 = CARTESIAN_POINT('',(23.175,-1.));
#604 = CARTESIAN_POINT('',(4.,-1.));
#605 = ( GEOMETRIC_REPRESENTATION_CONTEXT(2) 
PARAMETRIC_REPRESENTATION_CONTEXT() REPRESENTATION_CONTEXT('2D SPACE',''
  ) );
#606 = ADVANCED_FACE('',(#607),#72,.T.);
#607 = FACE_BOUND('',#608,.T.);
#608 = EDGE_LOOP('',(#609,#610,#631,#650));
#609 = ORIENTED_EDGE('',*,*,#57,.F.);
#610 = ORIENTED_EDGE('',*,*,#611,.F.);
#611 = EDGE_CURVE('',#612,#58,#614,.T.);
#612 = VERTEX_POINT('',#613);
#613 = CARTESIAN_POINT('',(-17.8,-5.7,14.));
#614 = SURFACE_CURVE('',#615,(#619,#625),.PCURVE_S1.);
#615 = LINE('',#616,#617);
#616 = CARTESIAN_POINT('',(-17.8,-3.75,14.));
#617 = VECTOR('',#618,1.);
#618 = DIRECTION('',(0.,-1.,0.));
#619 = PCURVE('',#72,#620);
#620 = DEFINITIONAL_REPRESENTATION('',(#621),#624);
#621 = B_SPLINE_CURVE_WITH_KNOTS('',1,(#622,#623),.UNSPECIFIED.,.F.,.F.,
  (2,2),(-11.25,3.75),.PIECEWISE_BEZIER_KNOTS.);
#622 = CARTESIAN_POINT('',(15.,-15.));
#623 = CARTESIAN_POINT('',(0.,-15.));
#624 = ( GEOMETRIC_REPRESENTATION_CONTEXT(2) 
PARAMETRIC_REPRESENTATION_CONTEXT() REPRESENTATION_CONTEXT('2D SPACE',''
  ) );
#625 = PCURVE('',#100,#626);
#626 = DEFINITIONAL_REPRESENTATION('',(#627),#630);
#627 = B_SPLINE_CURVE_WITH_KNOTS('',1,(#628,#629),.UNSPECIFIED.,.F.,.F.,
  (2,2),(-11.25,3.75),.PIECEWISE_BEZIER_KNOTS.);
#628 = CARTESIAN_POINT('',(-17.8,7.5));
#629 = CARTESIAN_POINT('',(-17.8,-7.5));
#630 = ( GEOMETRIC_REPRESENTATION_CONTEXT(2) 
PARAMETRIC_REPRESENTATION_CONTEXT() REPRESENTATION_CONTEXT('2D SPACE',''
  ) );
#631 = ORIENTED_EDGE('',*,*,#632,.F.);
#632 = EDGE_CURVE('',#486,#612,#633,.T.);
#633 = SURFACE_CURVE('',#634,(#638,#644),.PCURVE_S1.);
#634 = LINE('',#635,#636);
#635 = CARTESIAN_POINT('',(-17.8,-5.7,-1.));
#636 = VECTOR('',#637,1.);
#637 = DIRECTION('',(0.,-0.,1.));
#638 = PCURVE('',#72,#639);
#639 = DEFINITIONAL_REPRESENTATION('',(#640),#643);
#640 = B_SPLINE_CURVE_WITH_KNOTS('',1,(#641,#642),.UNSPECIFIED.,.F.,.F.,
  (2,2),(1.,15.),.PIECEWISE_BEZIER_KNOTS.);
#641 = CARTESIAN_POINT('',(1.8,-1.));
#642 = CARTESIAN_POINT('',(1.8,-15.));
#643 = ( GEOMETRIC_REPRESENTATION_CONTEXT(2) 
PARAMETRIC_REPRESENTATION_CONTEXT() REPRESENTATION_CONTEXT('2D SPACE',''
  ) );
#644 = PCURVE('',#596,#645);
#645 = DEFINITIONAL_REPRESENTATION('',(#646),#649);
#646 = B_SPLINE_CURVE_WITH_KNOTS('',1,(#647,#648),.UNSPECIFIED.,.F.,.F.,
  (2,2),(1.,15.),.PIECEWISE_BEZIER_KNOTS.);
#647 = CARTESIAN_POINT('',(5.375,-1.));
#648 = CARTESIAN_POINT('',(5.375,-15.));
#649 = ( GEOMETRIC_REPRESENTATION_CONTEXT(2) 
PARAMETRIC_REPRESENTATION_CONTEXT() REPRESENTATION_CONTEXT('2D SPACE',''
  ) );
#650 = ORIENTED_EDGE('',*,*,#485,.T.);
#651 = ADVANCED_FACE('',(#652),#129,.T.);
#652 = FACE_BOUND('',#653,.T.);
#653 = EDGE_LOOP('',(#654,#675,#676,#677));
#654 = ORIENTED_EDGE('',*,*,#655,.F.);
#655 = EDGE_CURVE('',#84,#656,#658,.T.);
#656 = VERTEX_POINT('',#657);
#657 = CARTESIAN_POINT('',(-17.8,5.7,14.));
#658 = SURFACE_CURVE('',#659,(#663,#669),.PCURVE_S1.);
#659 = LINE('',#660,#661);
#660 = CARTESIAN_POINT('',(-17.8,-3.75,14.));
#661 = VECTOR('',#662,1.);
#662 = DIRECTION('',(0.,-1.,0.));
#663 = PCURVE('',#129,#664);
#664 = DEFINITIONAL_REPRESENTATION('',(#665),#668);
#665 = B_SPLINE_CURVE_WITH_KNOTS('',1,(#666,#667),.UNSPECIFIED.,.F.,.F.,
  (2,2),(-11.25,3.75),.PIECEWISE_BEZIER_KNOTS.);
#666 = CARTESIAN_POINT('',(15.,-15.));
#667 = CARTESIAN_POINT('',(0.,-15.));
#668 = ( GEOMETRIC_REPRESENTATION_CONTEXT(2) 
PARAMETRIC_REPRESENTATION_CONTEXT() REPRESENTATION_CONTEXT('2D SPACE',''
  ) );
#669 = PCURVE('',#100,#670);
#670 = DEFINITIONAL_REPRESENTATION('',(#671),#674);
#671 = B_SPLINE_CURVE_WITH_KNOTS('',1,(#672,#673),.UNSPECIFIED.,.F.,.F.,
  (2,2),(-11.25,3.75),.PIECEWISE_BEZIER_KNOTS.);
#672 = CARTESIAN_POINT('',(-17.8,7.5));
#673 = CARTESIAN_POINT('',(-17.8,-7.5));
#674 = ( GEOMETRIC_REPRESENTATION_CONTEXT(2) 
PARAMETRIC_REPRESENTATION_CONTEXT() REPRESENTATION_CONTEXT('2D SPACE',''
  ) );
#675 = ORIENTED_EDGE('',*,*,#116,.T.);
#676 = ORIENTED_EDGE('',*,*,#507,.T.);
#677 = ORIENTED_EDGE('',*,*,#678,.F.);
#678 = EDGE_CURVE('',#656,#508,#679,.T.);
#679 = SURFACE_CURVE('',#680,(#684,#690),.PCURVE_S1.);
#680 = LINE('',#681,#682);
#681 = CARTESIAN_POINT('',(-17.8,5.7,-1.));
#682 = VECTOR('',#683,1.);
#683 = DIRECTION('',(-0.,-0.,-1.));
#684 = PCURVE('',#129,#685);
#685 = DEFINITIONAL_REPRESENTATION('',(#686),#689);
#686 = B_SPLINE_CURVE_WITH_KNOTS('',1,(#687,#688),.UNSPECIFIED.,.F.,.F.,
  (2,2),(-15.,-1.),.PIECEWISE_BEZIER_KNOTS.);
#687 = CARTESIAN_POINT('',(13.2,-15.));
#688 = CARTESIAN_POINT('',(13.2,-1.));
#689 = ( GEOMETRIC_REPRESENTATION_CONTEXT(2) 
PARAMETRIC_REPRESENTATION_CONTEXT() REPRESENTATION_CONTEXT('2D SPACE',''
  ) );
#690 = PCURVE('',#543,#691);
#691 = DEFINITIONAL_REPRESENTATION('',(#692),#695);
#692 = B_SPLINE_CURVE_WITH_KNOTS('',1,(#693,#694),.UNSPECIFIED.,.F.,.F.,
  (2,2),(-15.,-1.),.PIECEWISE_BEZIER_KNOTS.);
#693 = CARTESIAN_POINT('',(17.8,-15.));
#694 = CARTESIAN_POINT('',(17.8,-1.));
#695 = ( GEOMETRIC_REPRESENTATION_CONTEXT(2) 
PARAMETRIC_REPRESENTATION_CONTEXT() REPRESENTATION_CONTEXT('2D SPACE',''
  ) );
#696 = ADVANCED_FACE('',(#697),#100,.T.);
#697 = FACE_BOUND('',#698,.T.);
#698 = EDGE_LOOP('',(#699,#729,#748,#749,#750,#751));
#699 = ORIENTED_EDGE('',*,*,#700,.T.);
#700 = EDGE_CURVE('',#701,#703,#705,.T.);
#701 = VERTEX_POINT('',#702);
#702 = CARTESIAN_POINT('',(-13.87479729581,5.7,14.));
#703 = VERTEX_POINT('',#704);
#704 = CARTESIAN_POINT('',(-13.87479729581,-5.7,14.));
#705 = SURFACE_CURVE('',#706,(#711,#722),.PCURVE_S1.);
#706 = CIRCLE('',#707,15.);
#707 = AXIS2_PLACEMENT_3D('',#708,#709,#710);
#708 = CARTESIAN_POINT('',(9.078642516883E-14,1.852784187119E-16,14.));
#709 = DIRECTION('',(0.,0.,-1.));
#710 = DIRECTION('',(-0.924986486388,0.38,0.));
#711 = PCURVE('',#100,#712);
#712 = DEFINITIONAL_REPRESENTATION('',(#713),#721);
#713 = ( BOUNDED_CURVE() B_SPLINE_CURVE(2,(#714,#715,#716,#717,#718,#719
,#720),.UNSPECIFIED.,.T.,.F.) B_SPLINE_CURVE_WITH_KNOTS((1,2,2,2,2,1),(
    -2.094395102393,0.,2.094395102393,4.188790204786,6.28318530718,
8.377580409573),.UNSPECIFIED.) CURVE() GEOMETRIC_REPRESENTATION_ITEM() 
RATIONAL_B_SPLINE_CURVE((1.,0.5,1.,0.5,1.,0.5,1.)) REPRESENTATION_ITEM(
  '') );
#714 = CARTESIAN_POINT('',(-13.87479729581,5.7));
#715 = CARTESIAN_POINT('',(-4.002107692674,29.731853861074));
#716 = CARTESIAN_POINT('',(11.87374344948,9.165926930537));
#717 = CARTESIAN_POINT('',(27.749594591633,-11.4));
#718 = CARTESIAN_POINT('',(2.001053846337,-14.86592693053));
#719 = CARTESIAN_POINT('',(-23.74748689895,-18.33185386107));
#720 = CARTESIAN_POINT('',(-13.87479729581,5.7));
#721 = ( GEOMETRIC_REPRESENTATION_CONTEXT(2) 
PARAMETRIC_REPRESENTATION_CONTEXT() REPRESENTATION_CONTEXT('2D SPACE',''
  ) );
#722 = PCURVE('',#571,#723);
#723 = DEFINITIONAL_REPRESENTATION('',(#724),#728);
#724 = LINE('',#725,#726);
#725 = CARTESIAN_POINT('',(-9.034981664295,-14.));
#726 = VECTOR('',#727,1.);
#727 = DIRECTION('',(1.,-0.));
#728 = ( GEOMETRIC_REPRESENTATION_CONTEXT(2) 
PARAMETRIC_REPRESENTATION_CONTEXT() REPRESENTATION_CONTEXT('2D SPACE',''
  ) );
#729 = ORIENTED_EDGE('',*,*,#730,.T.);
#730 = EDGE_CURVE('',#703,#612,#731,.T.);
#731 = SURFACE_CURVE('',#732,(#736,#742),.PCURVE_S1.);
#732 = LINE('',#733,#734);
#733 = CARTESIAN_POINT('',(-11.5875,-5.7,14.));
#734 = VECTOR('',#735,1.);
#735 = DIRECTION('',(-1.,0.,0.));
#736 = PCURVE('',#100,#737);
#737 = DEFINITIONAL_REPRESENTATION('',(#738),#741);
#738 = B_SPLINE_CURVE_WITH_KNOTS('',1,(#739,#740),.UNSPECIFIED.,.F.,.F.,
  (2,2),(-11.5875,7.5875),.PIECEWISE_BEZIER_KNOTS.);
#739 = CARTESIAN_POINT('',(0.,-5.7));
#740 = CARTESIAN_POINT('',(-19.175,-5.7));
#741 = ( GEOMETRIC_REPRESENTATION_CONTEXT(2) 
PARAMETRIC_REPRESENTATION_CONTEXT() REPRESENTATION_CONTEXT('2D SPACE',''
  ) );
#742 = PCURVE('',#596,#743);
#743 = DEFINITIONAL_REPRESENTATION('',(#744),#747);
#744 = B_SPLINE_CURVE_WITH_KNOTS('',1,(#745,#746),.UNSPECIFIED.,.F.,.F.,
  (2,2),(-11.5875,7.5875),.PIECEWISE_BEZIER_KNOTS.);
#745 = CARTESIAN_POINT('',(23.175,-15.));
#746 = CARTESIAN_POINT('',(4.,-15.));
#747 = ( GEOMETRIC_REPRESENTATION_CONTEXT(2) 
PARAMETRIC_REPRESENTATION_CONTEXT() REPRESENTATION_CONTEXT('2D SPACE',''
  ) );
#748 = ORIENTED_EDGE('',*,*,#611,.T.);
#749 = ORIENTED_EDGE('',*,*,#83,.F.);
#750 = ORIENTED_EDGE('',*,*,#655,.T.);
#751 = ORIENTED_EDGE('',*,*,#752,.T.);
#752 = EDGE_CURVE('',#656,#701,#753,.T.);
#753 = SURFACE_CURVE('',#754,(#758,#764),.PCURVE_S1.);
#754 = LINE('',#755,#756);
#755 = CARTESIAN_POINT('',(0.,5.7,14.));
#756 = VECTOR('',#757,1.);
#757 = DIRECTION('',(1.,0.,-0.));
#758 = PCURVE('',#100,#759);
#759 = DEFINITIONAL_REPRESENTATION('',(#760),#763);
#760 = B_SPLINE_CURVE_WITH_KNOTS('',1,(#761,#762),.UNSPECIFIED.,.F.,.F.,
  (2,2),(-19.175,0.),.PIECEWISE_BEZIER_KNOTS.);
#761 = CARTESIAN_POINT('',(-19.175,5.7));
#762 = CARTESIAN_POINT('',(0.,5.7));
#763 = ( GEOMETRIC_REPRESENTATION_CONTEXT(2) 
PARAMETRIC_REPRESENTATION_CONTEXT() REPRESENTATION_CONTEXT('2D SPACE',''
  ) );
#764 = PCURVE('',#543,#765);
#765 = DEFINITIONAL_REPRESENTATION('',(#766),#769);
#766 = B_SPLINE_CURVE_WITH_KNOTS('',1,(#767,#768),.UNSPECIFIED.,.F.,.F.,
  (2,2),(-19.175,0.),.PIECEWISE_BEZIER_KNOTS.);
#767 = CARTESIAN_POINT('',(19.175,-15.));
#768 = CARTESIAN_POINT('',(0.,-15.));
#769 = ( GEOMETRIC_REPRESENTATION_CONTEXT(2) 
PARAMETRIC_REPRESENTATION_CONTEXT() REPRESENTATION_CONTEXT('2D SPACE',''
  ) );
#770 = ADVANCED_FACE('',(#771),#252,.F.);
#771 = FACE_BOUND('',#772,.F.);
#772 = EDGE_LOOP('',(#773,#774,#797,#959));
#773 = ORIENTED_EDGE('',*,*,#142,.F.);
#774 = ORIENTED_EDGE('',*,*,#775,.F.);
#775 = EDGE_CURVE('',#776,#143,#778,.T.);
#776 = VERTEX_POINT('',#777);
#777 = CARTESIAN_POINT('',(-2.7,-14.75499915283,7.));
#778 = SEAM_CURVE('',#779,(#783,#790),.PCURVE_S1.);
#779 = LINE('',#780,#781);
#780 = CARTESIAN_POINT('',(-2.7,4.959819536547E-16,7.));
#781 = VECTOR('',#782,1.);
#782 = DIRECTION('',(-1.836970198721E-16,-1.,0.));
#783 = PCURVE('',#252,#784);
#784 = DEFINITIONAL_REPRESENTATION('',(#785),#789);
#785 = LINE('',#786,#787);
#786 = CARTESIAN_POINT('',(6.28318530718,-0.));
#787 = VECTOR('',#788,1.);
#788 = DIRECTION('',(0.,1.));
#789 = ( GEOMETRIC_REPRESENTATION_CONTEXT(2) 
PARAMETRIC_REPRESENTATION_CONTEXT() REPRESENTATION_CONTEXT('2D SPACE',''
  ) );
#790 = PCURVE('',#252,#791);
#791 = DEFINITIONAL_REPRESENTATION('',(#792),#796);
#792 = LINE('',#793,#794);
#793 = CARTESIAN_POINT('',(0.,-0.));
#794 = VECTOR('',#795,1.);
#795 = DIRECTION('',(0.,1.));
#796 = ( GEOMETRIC_REPRESENTATION_CONTEXT(2) 
PARAMETRIC_REPRESENTATION_CONTEXT() REPRESENTATION_CONTEXT('2D SPACE',''
  ) );
#797 = ORIENTED_EDGE('',*,*,#798,.T.);
#798 = EDGE_CURVE('',#776,#776,#799,.T.);
#799 = SURFACE_CURVE('',#800,(#851,#905),.PCURVE_S1.);
#800 = B_SPLINE_CURVE_WITH_KNOTS('',7,(#801,#802,#803,#804,#805,#806,
    #807,#808,#809,#810,#811,#812,#813,#814,#815,#816,#817,#818,#819,
    #820,#821,#822,#823,#824,#825,#826,#827,#828,#829,#830,#831,#832,
    #833,#834,#835,#836,#837,#838,#839,#840,#841,#842,#843,#844,#845,
    #846,#847,#848,#849,#850),.UNSPECIFIED.,.T.,.F.,(8,6,6,6,6,6,6,6,8),
  (0.,0.133914247088,0.25101244687,0.358510635094,0.501197392564,
    0.634471780787,0.751010470849,0.857995019391,1.),.UNSPECIFIED.);
#801 = CARTESIAN_POINT('',(-2.7,-14.75499915283,7.));
#802 = CARTESIAN_POINT('',(-2.7,-14.75499915283,6.71951150812));
#803 = CARTESIAN_POINT('',(-2.666006147022,-14.76121958902,
    6.439385099998));
#804 = CARTESIAN_POINT('',(-2.598169241817,-14.77363329302,
    6.161998280595));
#805 = CARTESIAN_POINT('',(-2.495704662437,-14.79187245459,
    5.889979656827));
#806 = CARTESIAN_POINT('',(-2.35713367132,-14.81520358117,5.626673220245
    ));
#807 = CARTESIAN_POINT('',(-2.180516396583,-14.8422735923,5.376738182825
    ));
#808 = CARTESIAN_POINT('',(-1.774501383866,-14.89589358569,
    4.946387411265));
#809 = CARTESIAN_POINT('',(-1.549525830968,-14.92274096573,4.75589332206
    ));
#810 = CARTESIAN_POINT('',(-1.289615621477,-14.94942391623,
    4.586945950916));
#811 = CARTESIAN_POINT('',(-0.998193595348,-14.97311261965,
    4.449382516142));
#812 = CARTESIAN_POINT('',(-0.680928870867,-14.990730215,4.351496934423)
  );
#813 = CARTESIAN_POINT('',(-0.345224513056,-15.,4.3));
#814 = CARTESIAN_POINT('',(0.316922119664,-15.,4.3));
#815 = CARTESIAN_POINT('',(0.626784368988,-14.99218786685,4.343399522985
    ));
#816 = CARTESIAN_POINT('',(0.922202419662,-14.97719129201,4.426720315219
    ));
#817 = CARTESIAN_POINT('',(1.196754139092,-14.9566778099,4.5449188607));
#818 = CARTESIAN_POINT('',(1.445297522985,-14.93302952675,4.691451345779
    ));
#819 = CARTESIAN_POINT('',(1.664416567135,-14.90858060786,4.858311107474
    ));
#820 = CARTESIAN_POINT('',(2.102971067045,-14.85399075505,5.272065938707
    ));
#821 = CARTESIAN_POINT('',(2.306542529253,-14.82367129491,5.534368354352
    ));
#822 = CARTESIAN_POINT('',(2.465812605066,-14.79718120869,5.813508324904
    ));
#823 = CARTESIAN_POINT('',(2.583333852078,-14.77634858476,6.103457890923
    ));
#824 = CARTESIAN_POINT('',(2.661033638282,-14.76212935151,6.399898845344
    ));
#825 = CARTESIAN_POINT('',(2.7,-14.75499915283,6.699702291281));
#826 = CARTESIAN_POINT('',(2.7,-14.75499915283,7.28048849188));
#827 = CARTESIAN_POINT('',(2.666006147023,-14.76121958902,7.560614900001
    ));
#828 = CARTESIAN_POINT('',(2.598169241815,-14.77363329302,7.838001719407
    ));
#829 = CARTESIAN_POINT('',(2.495704662438,-14.79187245459,8.110020343171
    ));
#830 = CARTESIAN_POINT('',(2.357133671319,-14.81520358117,8.373326779756
    ));
#831 = CARTESIAN_POINT('',(2.180516396583,-14.8422735923,8.623261817175)
  );
#832 = CARTESIAN_POINT('',(1.774501383885,-14.89589358568,9.053612588714
    ));
#833 = CARTESIAN_POINT('',(1.54952583095,-14.92274096573,9.244106677969)
  );
#834 = CARTESIAN_POINT('',(1.289615621454,-14.94942391623,9.413054049084
    ));
#835 = CARTESIAN_POINT('',(0.998193595369,-14.97311261964,9.550617483839
    ));
#836 = CARTESIAN_POINT('',(0.680928870895,-14.990730215,9.648503065585)
  );
#837 = CARTESIAN_POINT('',(0.345224513028,-15.,9.7));
#838 = CARTESIAN_POINT('',(-0.316922119617,-15.,9.7));
#839 = CARTESIAN_POINT('',(-0.626784369036,-14.99218786686,
    9.656600477027));
#840 = CARTESIAN_POINT('',(-0.922202419694,-14.97719129201,
    9.573279684753));
#841 = CARTESIAN_POINT('',(-1.196754139056,-14.95667780991,
    9.455081139299));
#842 = CARTESIAN_POINT('',(-1.445297522951,-14.93302952675,
    9.308548654267));
#843 = CARTESIAN_POINT('',(-1.66441656717,-14.90858060786,9.141688892493
    ));
#844 = CARTESIAN_POINT('',(-2.102971063777,-14.85399075546,
    8.727934064376));
#845 = CARTESIAN_POINT('',(-2.306542539096,-14.82367129364,
    8.465631632784));
#846 = CARTESIAN_POINT('',(-2.46581259158,-14.79718121047,8.186491699398
    ));
#847 = CARTESIAN_POINT('',(-2.583333861575,-14.77634858348,
    7.896542083806));
#848 = CARTESIAN_POINT('',(-2.661033635367,-14.76212935191,
    7.600101169225));
#849 = CARTESIAN_POINT('',(-2.7,-14.75499915283,7.30029770481));
#850 = CARTESIAN_POINT('',(-2.7,-14.75499915283,7.));
#851 = PCURVE('',#252,#852);
#852 = DEFINITIONAL_REPRESENTATION('',(#853),#904);
#853 = B_SPLINE_CURVE_WITH_KNOTS('',7,(#854,#855,#856,#857,#858,#859,
    #860,#861,#862,#863,#864,#865,#866,#867,#868,#869,#870,#871,#872,
    #873,#874,#875,#876,#877,#878,#879,#880,#881,#882,#883,#884,#885,
    #886,#887,#888,#889,#890,#891,#892,#893,#894,#895,#896,#897,#898,
    #899,#900,#901,#902,#903),.UNSPECIFIED.,.F.,.F.,(8,6,6,6,6,6,6,6,8),
  (0.,0.133914247088,0.25101244687,0.358510635094,0.501197392564,
    0.634471780787,0.751010470849,0.857995019391,1.),.UNSPECIFIED.);
#854 = CARTESIAN_POINT('',(0.,14.75499915283));
#855 = CARTESIAN_POINT('',(0.103884626622,14.75499915283));
#856 = CARTESIAN_POINT('',(0.207634866558,14.761219589029));
#857 = CARTESIAN_POINT('',(0.312203188609,14.773633293021));
#858 = CARTESIAN_POINT('',(0.418420567594,14.791872454597));
#859 = CARTESIAN_POINT('',(0.527182635688,14.815203581177));
#860 = CARTESIAN_POINT('',(0.639404422455,14.842273592301));
#861 = CARTESIAN_POINT('',(0.858534131784,14.895893585691));
#862 = CARTESIAN_POINT('',(0.967033452193,14.92274096573));
#863 = CARTESIAN_POINT('',(1.080351392922,14.94942391623));
#864 = CARTESIAN_POINT('',(1.19768050671,14.973112619653));
#865 = CARTESIAN_POINT('',(1.318600554702,14.990730215002));
#866 = CARTESIAN_POINT('',(1.442935396033,15.));
#867 = CARTESIAN_POINT('',(1.688174889633,15.));
#868 = CARTESIAN_POINT('',(1.802938558674,14.992187866859));
#869 = CARTESIAN_POINT('',(1.914994693299,14.977191292018));
#870 = CARTESIAN_POINT('',(2.024074023179,14.956677809909));
#871 = CARTESIAN_POINT('',(2.129716345238,14.933029526754));
#872 = CARTESIAN_POINT('',(2.231156279,14.908580607867));
#873 = CARTESIAN_POINT('',(2.454463233329,14.853990755058));
#874 = CARTESIAN_POINT('',(2.575973172448,14.823671294912));
#875 = CARTESIAN_POINT('',(2.693198122828,14.797181208695));
#876 = CARTESIAN_POINT('',(2.807291579098,14.776348584763));
#877 = CARTESIAN_POINT('',(2.919333294421,14.762129351511));
#878 = CARTESIAN_POINT('',(3.03037127999,14.75499915283));
#879 = CARTESIAN_POINT('',(3.245477280212,14.75499915283));
#880 = CARTESIAN_POINT('',(3.349227520147,14.761219589029));
#881 = CARTESIAN_POINT('',(3.453795842199,14.773633293021));
#882 = CARTESIAN_POINT('',(3.560013221183,14.791872454597));
#883 = CARTESIAN_POINT('',(3.668775289279,14.815203581177));
#884 = CARTESIAN_POINT('',(3.780997076044,14.842273592301));
#885 = CARTESIAN_POINT('',(4.000126785363,14.895893585689));
#886 = CARTESIAN_POINT('',(4.108626105796,14.922740965733));
#887 = CARTESIAN_POINT('',(4.221944046517,14.949423916231));
#888 = CARTESIAN_POINT('',(4.339273160293,14.973112619649));
#889 = CARTESIAN_POINT('',(4.460193208281,14.990730215003));
#890 = CARTESIAN_POINT('',(4.584528049634,15.));
#891 = CARTESIAN_POINT('',(4.829767543206,15.));
#892 = CARTESIAN_POINT('',(4.944531212281,14.992187866862));
#893 = CARTESIAN_POINT('',(5.0565873469,14.977191292011));
#894 = CARTESIAN_POINT('',(5.165666676761,14.956677809911));
#895 = CARTESIAN_POINT('',(5.271308998807,14.933029526759));
#896 = CARTESIAN_POINT('',(5.372748932607,14.908580607862));
#897 = CARTESIAN_POINT('',(5.596055885255,14.853990755465));
#898 = CARTESIAN_POINT('',(5.717565832298,14.823671293646));
#899 = CARTESIAN_POINT('',(5.834790765459,14.797181210476));
#900 = CARTESIAN_POINT('',(5.948884243372,14.776348583483));
#901 = CARTESIAN_POINT('',(6.060925942222,14.76212935191));
#902 = CARTESIAN_POINT('',(6.171963935028,14.75499915283));
#903 = CARTESIAN_POINT('',(6.28318530718,14.75499915283));
#904 = ( GEOMETRIC_REPRESENTATION_CONTEXT(2) 
PARAMETRIC_REPRESENTATION_CONTEXT() REPRESENTATION_CONTEXT('2D SPACE',''
  ) );
#905 = PCURVE('',#571,#906);
#906 = DEFINITIONAL_REPRESENTATION('',(#907),#958);
#907 = B_SPLINE_CURVE_WITH_KNOTS('',7,(#908,#909,#910,#911,#912,#913,
    #914,#915,#916,#917,#918,#919,#920,#921,#922,#923,#924,#925,#926,
    #927,#928,#929,#930,#931,#932,#933,#934,#935,#936,#937,#938,#939,
    #940,#941,#942,#943,#944,#945,#946,#947,#948,#949,#950,#951,#952,
    #953,#954,#955,#956,#957),.UNSPECIFIED.,.F.,.F.,(8,6,6,6,6,6,6,6,8),
  (0.,0.133914247088,0.25101244687,0.358510635094,0.501197392564,
    0.634471780787,0.751010470849,0.857995019391,1.),.UNSPECIFIED.);
#908 = CARTESIAN_POINT('',(-4.531402529138,-7.));
#909 = CARTESIAN_POINT('',(-4.531402529138,-6.71951150812));
#910 = CARTESIAN_POINT('',(-4.533706414021,-6.439385099998));
#911 = CARTESIAN_POINT('',(-4.538303980791,-6.161998280595));
#912 = CARTESIAN_POINT('',(-4.545242220509,-5.889979656827));
#913 = CARTESIAN_POINT('',(-4.554609452664,-5.626673220245));
#914 = CARTESIAN_POINT('',(-4.566518863906,-5.376738182825));
#915 = CARTESIAN_POINT('',(-4.593821553578,-4.946387411265));
#916 = CARTESIAN_POINT('',(-4.608925139312,-4.75589332206));
#917 = CARTESIAN_POINT('',(-4.626339687707,-4.586945950916));
#918 = CARTESIAN_POINT('',(-4.645822911315,-4.449382516143));
#919 = CARTESIAN_POINT('',(-4.666993704275,-4.351496934423));
#920 = CARTESIAN_POINT('',(-4.689374012848,-4.3));
#921 = CARTESIAN_POINT('',(-4.733517121696,-4.3));
#922 = CARTESIAN_POINT('',(-4.754174617826,-4.343399522985));
#923 = CARTESIAN_POINT('',(-4.773884488694,-4.426720315219));
#924 = CARTESIAN_POINT('',(-4.792231268367,-4.5449188607));
#925 = CARTESIAN_POINT('',(-4.808872046475,-4.691451345779));
#926 = CARTESIAN_POINT('',(-4.823569433122,-4.858311107474));
#927 = CARTESIAN_POINT('',(-4.853032034759,-5.272065938707));
#928 = CARTESIAN_POINT('',(-4.866749209329,-5.534368354352));
#929 = CARTESIAN_POINT('',(-4.877511787922,-5.813508324904));
#930 = CARTESIAN_POINT('',(-4.88546852343,-6.103457890923));
#931 = CARTESIAN_POINT('',(-4.890734543599,-6.399898845344));
#932 = CARTESIAN_POINT('',(-4.893375431631,-6.699702291281));
#933 = CARTESIAN_POINT('',(-4.893375431631,-7.28048849188));
#934 = CARTESIAN_POINT('',(-4.891071546748,-7.560614900001));
#935 = CARTESIAN_POINT('',(-4.886473979978,-7.838001719407));
#936 = CARTESIAN_POINT('',(-4.87953574026,-8.110020343171));
#937 = CARTESIAN_POINT('',(-4.870168508105,-8.373326779756));
#938 = CARTESIAN_POINT('',(-4.858259096863,-8.623261817175));
#939 = CARTESIAN_POINT('',(-4.830956407193,-9.053612588714));
#940 = CARTESIAN_POINT('',(-4.815852821456,-9.244106677969));
#941 = CARTESIAN_POINT('',(-4.798438273061,-9.413054049084));
#942 = CARTESIAN_POINT('',(-4.778955049456,-9.550617483839));
#943 = CARTESIAN_POINT('',(-4.757784256497,-9.648503065585));
#944 = CARTESIAN_POINT('',(-4.73540394792,-9.7));
#945 = CARTESIAN_POINT('',(-4.691260839077,-9.7));
#946 = CARTESIAN_POINT('',(-4.67060334294,-9.656600477027));
#947 = CARTESIAN_POINT('',(-4.650893472074,-9.573279684753));
#948 = CARTESIAN_POINT('',(-4.632546692405,-9.455081139299));
#949 = CARTESIAN_POINT('',(-4.615905914297,-9.308548654267));
#950 = CARTESIAN_POINT('',(-4.601208527645,-9.141688892493));
#951 = CARTESIAN_POINT('',(-4.57174592623,-8.727934064376));
#952 = CARTESIAN_POINT('',(-4.558028750779,-8.465631632784));
#953 = CARTESIAN_POINT('',(-4.547266173754,-8.186491699398));
#954 = CARTESIAN_POINT('',(-4.5393094367,-7.896542083806));
#955 = CARTESIAN_POINT('',(-4.534043417367,-7.600101169226));
#956 = CARTESIAN_POINT('',(-4.531402529138,-7.30029770481));
#957 = CARTESIAN_POINT('',(-4.531402529138,-7.));
#958 = ( GEOMETRIC_REPRESENTATION_CONTEXT(2) 
PARAMETRIC_REPRESENTATION_CONTEXT() REPRESENTATION_CONTEXT('2D SPACE',''
  ) );
#959 = ORIENTED_EDGE('',*,*,#775,.T.);
#960 = ADVANCED_FACE('',(#961),#423,.F.);
#961 = FACE_BOUND('',#962,.F.);
#962 = EDGE_LOOP('',(#963,#964,#987,#1149));
#963 = ORIENTED_EDGE('',*,*,#313,.F.);
#964 = ORIENTED_EDGE('',*,*,#965,.F.);
#965 = EDGE_CURVE('',#966,#314,#968,.T.);
#966 = VERTEX_POINT('',#967);
#967 = CARTESIAN_POINT('',(2.7,14.75499915283,7.));
#968 = SEAM_CURVE('',#969,(#973,#980),.PCURVE_S1.);
#969 = LINE('',#970,#971);
#970 = CARTESIAN_POINT('',(2.7,-1.653273178849E-16,7.));
#971 = VECTOR('',#972,1.);
#972 = DIRECTION('',(6.123233995737E-17,1.,0.));
#973 = PCURVE('',#423,#974);
#974 = DEFINITIONAL_REPRESENTATION('',(#975),#979);
#975 = LINE('',#976,#977);
#976 = CARTESIAN_POINT('',(6.28318530718,-0.));
#977 = VECTOR('',#978,1.);
#978 = DIRECTION('',(0.,1.));
#979 = ( GEOMETRIC_REPRESENTATION_CONTEXT(2) 
PARAMETRIC_REPRESENTATION_CONTEXT() REPRESENTATION_CONTEXT('2D SPACE',''
  ) );
#980 = PCURVE('',#423,#981);
#981 = DEFINITIONAL_REPRESENTATION('',(#982),#986);
#982 = LINE('',#983,#984);
#983 = CARTESIAN_POINT('',(0.,-0.));
#984 = VECTOR('',#985,1.);
#985 = DIRECTION('',(0.,1.));
#986 = ( GEOMETRIC_REPRESENTATION_CONTEXT(2) 
PARAMETRIC_REPRESENTATION_CONTEXT() REPRESENTATION_CONTEXT('2D SPACE',''
  ) );
#987 = ORIENTED_EDGE('',*,*,#988,.T.);
#988 = EDGE_CURVE('',#966,#966,#989,.T.);
#989 = SURFACE_CURVE('',#990,(#1041,#1095),.PCURVE_S1.);
#990 = B_SPLINE_CURVE_WITH_KNOTS('',7,(#991,#992,#993,#994,#995,#996,
    #997,#998,#999,#1000,#1001,#1002,#1003,#1004,#1005,#1006,#1007,#1008
    ,#1009,#1010,#1011,#1012,#1013,#1014,#1015,#1016,#1017,#1018,#1019,
    #1020,#1021,#1022,#1023,#1024,#1025,#1026,#1027,#1028,#1029,#1030,
    #1031,#1032,#1033,#1034,#1035,#1036,#1037,#1038,#1039,#1040),
  .UNSPECIFIED.,.T.,.F.,(8,6,6,6,6,6,6,6,8),(0.,0.133914247088,
    0.251012446872,0.35851063512,0.501197392583,0.634471780798,
    0.751010470854,0.857995019403,1.),.UNSPECIFIED.);
#991 = CARTESIAN_POINT('',(2.7,14.75499915283,7.));
#992 = CARTESIAN_POINT('',(2.7,14.75499915283,6.71951150812));
#993 = CARTESIAN_POINT('',(2.666006147022,14.761219589029,6.439385099999
    ));
#994 = CARTESIAN_POINT('',(2.598169241816,14.773633293021,6.161998280593
    ));
#995 = CARTESIAN_POINT('',(2.495704662438,14.791872454597,5.889979656829
    ));
#996 = CARTESIAN_POINT('',(2.357133671319,14.815203581177,5.626673220244
    ));
#997 = CARTESIAN_POINT('',(2.180516396583,14.842273592301,5.376738182826
    ));
#998 = CARTESIAN_POINT('',(1.774501383863,14.895893585692,4.946387411262
    ));
#999 = CARTESIAN_POINT('',(1.549525830971,14.922740965729,4.755893322064
    ));
#1000 = CARTESIAN_POINT('',(1.289615621481,14.949423916229,
    4.586945950916));
#1001 = CARTESIAN_POINT('',(0.998193595345,14.973112619654,
    4.449382516139));
#1002 = CARTESIAN_POINT('',(0.680928870863,14.990730215002,
    4.351496934424));
#1003 = CARTESIAN_POINT('',(0.34522451306,15.,4.3));
#1004 = CARTESIAN_POINT('',(-0.316922119736,15.,4.3));
#1005 = CARTESIAN_POINT('',(-0.626784368918,14.992187866856,
    4.343399523004));
#1006 = CARTESIAN_POINT('',(-0.922202419608,14.977191292027,
    4.426720315175));
#1007 = CARTESIAN_POINT('',(-1.19675413915,14.956677809905,4.5449188607)
  );
#1008 = CARTESIAN_POINT('',(-1.445297523035,14.933029526746,
    4.691451345848));
#1009 = CARTESIAN_POINT('',(-1.664416567083,14.908580607873,
    4.858311107424));
#1010 = CARTESIAN_POINT('',(-2.102971067045,14.853990755058,
    5.272065938707));
#1011 = CARTESIAN_POINT('',(-2.306542529254,14.823671294912,
    5.534368354353));
#1012 = CARTESIAN_POINT('',(-2.465812605065,14.797181208695,
    5.813508324903));
#1013 = CARTESIAN_POINT('',(-2.583333852079,14.776348584763,
    6.103457890922));
#1014 = CARTESIAN_POINT('',(-2.661033638282,14.762129351511,
    6.399898845345));
#1015 = CARTESIAN_POINT('',(-2.7,14.75499915283,6.699702291281));
#1016 = CARTESIAN_POINT('',(-2.7,14.75499915283,7.28048849188));
#1017 = CARTESIAN_POINT('',(-2.666006147022,14.761219589029,
    7.560614900002));
#1018 = CARTESIAN_POINT('',(-2.598169241816,14.773633293021,
    7.838001719406));
#1019 = CARTESIAN_POINT('',(-2.495704662437,14.791872454597,
    8.110020343172));
#1020 = CARTESIAN_POINT('',(-2.35713367132,14.815203581177,
    8.373326779755));
#1021 = CARTESIAN_POINT('',(-2.180516396583,14.842273592301,
    8.623261817175));
#1022 = CARTESIAN_POINT('',(-1.774501383885,14.895893585689,
    9.053612588714));
#1023 = CARTESIAN_POINT('',(-1.549525830949,14.922740965733,
    9.24410667797));
#1024 = CARTESIAN_POINT('',(-1.289615621455,14.949423916231,
    9.413054049083));
#1025 = CARTESIAN_POINT('',(-0.998193595368,14.973112619649,
    9.550617483839));
#1026 = CARTESIAN_POINT('',(-0.680928870896,14.990730215003,
    9.648503065585));
#1027 = CARTESIAN_POINT('',(-0.345224513028,15.,9.7));
#1028 = CARTESIAN_POINT('',(0.316922119655,15.,9.7));
#1029 = CARTESIAN_POINT('',(0.626784368998,14.99218786686,9.656600477017
    ));
#1030 = CARTESIAN_POINT('',(0.922202419667,14.977191292016,
    9.573279684777));
#1031 = CARTESIAN_POINT('',(1.196754139086,14.956677809909,
    9.455081139299));
#1032 = CARTESIAN_POINT('',(1.445297522978,14.933029526755,9.30854865423
    ));
#1033 = CARTESIAN_POINT('',(1.664416567142,14.908580607866,9.14168889252
    ));
#1034 = CARTESIAN_POINT('',(2.102971063777,14.853990755465,
    8.727934064376));
#1035 = CARTESIAN_POINT('',(2.306542539096,14.823671293646,
    8.465631632784));
#1036 = CARTESIAN_POINT('',(2.46581259158,14.797181210476,8.186491699398
    ));
#1037 = CARTESIAN_POINT('',(2.583333861575,14.776348583483,
    7.896542083806));
#1038 = CARTESIAN_POINT('',(2.661033635367,14.76212935191,7.600101169225
    ));
#1039 = CARTESIAN_POINT('',(2.7,14.75499915283,7.30029770481));
#1040 = CARTESIAN_POINT('',(2.7,14.75499915283,7.));
#1041 = PCURVE('',#423,#1042);
#1042 = DEFINITIONAL_REPRESENTATION('',(#1043),#1094);
#1043 = B_SPLINE_CURVE_WITH_KNOTS('',7,(#1044,#1045,#1046,#1047,#1048,
    #1049,#1050,#1051,#1052,#1053,#1054,#1055,#1056,#1057,#1058,#1059,
    #1060,#1061,#1062,#1063,#1064,#1065,#1066,#1067,#1068,#1069,#1070,
    #1071,#1072,#1073,#1074,#1075,#1076,#1077,#1078,#1079,#1080,#1081,
    #1082,#1083,#1084,#1085,#1086,#1087,#1088,#1089,#1090,#1091,#1092,
    #1093),.UNSPECIFIED.,.F.,.F.,(8,6,6,6,6,6,6,6,8),(0.,0.133914247088,
    0.251012446872,0.35851063512,0.501197392583,0.634471780798,
    0.751010470854,0.857995019403,1.),.UNSPECIFIED.);
#1044 = CARTESIAN_POINT('',(0.,14.75499915283));
#1045 = CARTESIAN_POINT('',(0.103884626622,14.75499915283));
#1046 = CARTESIAN_POINT('',(0.207634866557,14.761219589029));
#1047 = CARTESIAN_POINT('',(0.31220318861,14.773633293021));
#1048 = CARTESIAN_POINT('',(0.418420567593,14.791872454597));
#1049 = CARTESIAN_POINT('',(0.527182635689,14.815203581177));
#1050 = CARTESIAN_POINT('',(0.639404422454,14.842273592301));
#1051 = CARTESIAN_POINT('',(0.858534131786,14.895893585692));
#1052 = CARTESIAN_POINT('',(0.967033452192,14.922740965729));
#1053 = CARTESIAN_POINT('',(1.080351392921,14.949423916229));
#1054 = CARTESIAN_POINT('',(1.197680506711,14.973112619654));
#1055 = CARTESIAN_POINT('',(1.318600554703,14.990730215002));
#1056 = CARTESIAN_POINT('',(1.442935396032,15.));
#1057 = CARTESIAN_POINT('',(1.68817488966,15.));
#1058 = CARTESIAN_POINT('',(1.802938558648,14.992187866856));
#1059 = CARTESIAN_POINT('',(1.914994693281,14.977191292027));
#1060 = CARTESIAN_POINT('',(2.024074023193,14.956677809905));
#1061 = CARTESIAN_POINT('',(2.129716345269,14.933029526746));
#1062 = CARTESIAN_POINT('',(2.231156278973,14.908580607873));
#1063 = CARTESIAN_POINT('',(2.454463233329,14.853990755058));
#1064 = CARTESIAN_POINT('',(2.575973172448,14.823671294912));
#1065 = CARTESIAN_POINT('',(2.693198122828,14.797181208695));
#1066 = CARTESIAN_POINT('',(2.807291579098,14.776348584763));
#1067 = CARTESIAN_POINT('',(2.919333294422,14.762129351511));
#1068 = CARTESIAN_POINT('',(3.03037127999,14.75499915283));
#1069 = CARTESIAN_POINT('',(3.245477280212,14.75499915283));
#1070 = CARTESIAN_POINT('',(3.349227520147,14.761219589029));
#1071 = CARTESIAN_POINT('',(3.453795842199,14.773633293021));
#1072 = CARTESIAN_POINT('',(3.560013221184,14.791872454597));
#1073 = CARTESIAN_POINT('',(3.668775289278,14.815203581177));
#1074 = CARTESIAN_POINT('',(3.780997076044,14.842273592301));
#1075 = CARTESIAN_POINT('',(4.000126785363,14.895893585689));
#1076 = CARTESIAN_POINT('',(4.108626105796,14.922740965733));
#1077 = CARTESIAN_POINT('',(4.221944046517,14.949423916231));
#1078 = CARTESIAN_POINT('',(4.339273160294,14.973112619649));
#1079 = CARTESIAN_POINT('',(4.460193208281,14.990730215003));
#1080 = CARTESIAN_POINT('',(4.584528049634,15.));
#1081 = CARTESIAN_POINT('',(4.82976754322,15.));
#1082 = CARTESIAN_POINT('',(4.944531212267,14.99218786686));
#1083 = CARTESIAN_POINT('',(5.056587346891,14.977191292016));
#1084 = CARTESIAN_POINT('',(5.165666676768,14.956677809909));
#1085 = CARTESIAN_POINT('',(5.271308998824,14.933029526755));
#1086 = CARTESIAN_POINT('',(5.372748932593,14.908580607866));
#1087 = CARTESIAN_POINT('',(5.596055885255,14.853990755465));
#1088 = CARTESIAN_POINT('',(5.717565832298,14.823671293646));
#1089 = CARTESIAN_POINT('',(5.834790765459,14.797181210476));
#1090 = CARTESIAN_POINT('',(5.948884243372,14.776348583483));
#1091 = CARTESIAN_POINT('',(6.060925942222,14.76212935191));
#1092 = CARTESIAN_POINT('',(6.171963935028,14.75499915283));
#1093 = CARTESIAN_POINT('',(6.28318530718,14.75499915283));
#1094 = ( GEOMETRIC_REPRESENTATION_CONTEXT(2) 
PARAMETRIC_REPRESENTATION_CONTEXT() REPRESENTATION_CONTEXT('2D SPACE',''
  ) );
#1095 = PCURVE('',#571,#1096);
#1096 = DEFINITIONAL_REPRESENTATION('',(#1097),#1148);
#1097 = B_SPLINE_CURVE_WITH_KNOTS('',7,(#1098,#1099,#1100,#1101,#1102,
    #1103,#1104,#1105,#1106,#1107,#1108,#1109,#1110,#1111,#1112,#1113,
    #1114,#1115,#1116,#1117,#1118,#1119,#1120,#1121,#1122,#1123,#1124,
    #1125,#1126,#1127,#1128,#1129,#1130,#1131,#1132,#1133,#1134,#1135,
    #1136,#1137,#1138,#1139,#1140,#1141,#1142,#1143,#1144,#1145,#1146,
    #1147),.UNSPECIFIED.,.T.,.F.,(8,6,6,6,6,6,6,6,8),(0.,0.133914247088,
    0.251012446872,0.35851063512,0.501197392583,0.634471780798,
    0.751010470854,0.857995019403,1.),.UNSPECIFIED.);
#1098 = CARTESIAN_POINT('',(-7.672995182728,-7.));
#1099 = CARTESIAN_POINT('',(-7.672995182728,-6.71951150812));
#1100 = CARTESIAN_POINT('',(-7.675299067611,-6.439385099999));
#1101 = CARTESIAN_POINT('',(-7.679896634381,-6.161998280593));
#1102 = CARTESIAN_POINT('',(-7.686834874099,-5.889979656829));
#1103 = CARTESIAN_POINT('',(-7.696202106254,-5.626673220244));
#1104 = CARTESIAN_POINT('',(-7.708111517496,-5.376738182826));
#1105 = CARTESIAN_POINT('',(-7.735414207168,-4.946387411262));
#1106 = CARTESIAN_POINT('',(-7.750517792902,-4.755893322064));
#1107 = CARTESIAN_POINT('',(-7.767932341296,-4.586945950917));
#1108 = CARTESIAN_POINT('',(-7.787415564905,-4.449382516139));
#1109 = CARTESIAN_POINT('',(-7.808586357865,-4.351496934424));
#1110 = CARTESIAN_POINT('',(-7.830966666437,-4.3));
#1111 = CARTESIAN_POINT('',(-7.87510977529,-4.3));
#1112 = CARTESIAN_POINT('',(-7.895767271411,-4.343399523004));
#1113 = CARTESIAN_POINT('',(-7.91547714228,-4.426720315175));
#1114 = CARTESIAN_POINT('',(-7.933823921961,-4.5449188607));
#1115 = CARTESIAN_POINT('',(-7.950464700068,-4.691451345848));
#1116 = CARTESIAN_POINT('',(-7.965162086709,-4.858311107424));
#1117 = CARTESIAN_POINT('',(-7.994624688349,-5.272065938707));
#1118 = CARTESIAN_POINT('',(-8.008341862919,-5.534368354353));
#1119 = CARTESIAN_POINT('',(-8.019104441512,-5.813508324903));
#1120 = CARTESIAN_POINT('',(-8.02706117702,-6.103457890922));
#1121 = CARTESIAN_POINT('',(-8.032327197189,-6.399898845345));
#1122 = CARTESIAN_POINT('',(-8.034968085221,-6.699702291281));
#1123 = CARTESIAN_POINT('',(-8.034968085221,-7.28048849188));
#1124 = CARTESIAN_POINT('',(-8.032664200338,-7.560614900002));
#1125 = CARTESIAN_POINT('',(-8.028066633568,-7.838001719406));
#1126 = CARTESIAN_POINT('',(-8.02112839385,-8.110020343172));
#1127 = CARTESIAN_POINT('',(-8.011761161695,-8.373326779755));
#1128 = CARTESIAN_POINT('',(-7.999851750453,-8.623261817175));
#1129 = CARTESIAN_POINT('',(-7.972549060783,-9.053612588714));
#1130 = CARTESIAN_POINT('',(-7.957445475045,-9.24410667797));
#1131 = CARTESIAN_POINT('',(-7.940030926651,-9.413054049083));
#1132 = CARTESIAN_POINT('',(-7.920547703046,-9.550617483839));
#1133 = CARTESIAN_POINT('',(-7.899376910086,-9.648503065585));
#1134 = CARTESIAN_POINT('',(-7.87699660151,-9.7));
#1135 = CARTESIAN_POINT('',(-7.832853492664,-9.7));
#1136 = CARTESIAN_POINT('',(-7.812195996532,-9.656600477017));
#1137 = CARTESIAN_POINT('',(-7.792486125665,-9.573279684776));
#1138 = CARTESIAN_POINT('',(-7.774139345993,-9.455081139299));
#1139 = CARTESIAN_POINT('',(-7.757498567885,-9.30854865423));
#1140 = CARTESIAN_POINT('',(-7.742801181236,-9.14168889252));
#1141 = CARTESIAN_POINT('',(-7.71333857982,-8.727934064376));
#1142 = CARTESIAN_POINT('',(-7.699621404368,-8.465631632784));
#1143 = CARTESIAN_POINT('',(-7.688858827344,-8.186491699397));
#1144 = CARTESIAN_POINT('',(-7.68090209029,-7.896542083807));
#1145 = CARTESIAN_POINT('',(-7.675636070956,-7.600101169225));
#1146 = CARTESIAN_POINT('',(-7.672995182728,-7.30029770481));
#1147 = CARTESIAN_POINT('',(-7.672995182728,-7.));
#1148 = ( GEOMETRIC_REPRESENTATION_CONTEXT(2) 
PARAMETRIC_REPRESENTATION_CONTEXT() REPRESENTATION_CONTEXT('2D SPACE',''
  ) );
#1149 = ORIENTED_EDGE('',*,*,#965,.T.);
#1150 = ADVANCED_FACE('',(#1151),#596,.T.);
#1151 = FACE_BOUND('',#1152,.T.);
#1152 = EDGE_LOOP('',(#1153,#1154,#1155,#1174));
#1153 = ORIENTED_EDGE('',*,*,#632,.T.);
#1154 = ORIENTED_EDGE('',*,*,#730,.F.);
#1155 = ORIENTED_EDGE('',*,*,#1156,.T.);
#1156 = EDGE_CURVE('',#703,#555,#1157,.T.);
#1157 = SURFACE_CURVE('',#1158,(#1162,#1168),.PCURVE_S1.);
#1158 = LINE('',#1159,#1160);
#1159 = CARTESIAN_POINT('',(-13.87479729581,-5.7,0.));
#1160 = VECTOR('',#1161,1.);
#1161 = DIRECTION('',(-0.,-0.,-1.));
#1162 = PCURVE('',#596,#1163);
#1163 = DEFINITIONAL_REPRESENTATION('',(#1164),#1167);
#1164 = B_SPLINE_CURVE_WITH_KNOTS('',1,(#1165,#1166),.UNSPECIFIED.,.F.,
  .F.,(2,2),(-14.0000006,6.E-07),.PIECEWISE_BEZIER_KNOTS.);
#1165 = CARTESIAN_POINT('',(9.300202704183,-15.0000006));
#1166 = CARTESIAN_POINT('',(9.300202704183,-0.9999994));
#1167 = ( GEOMETRIC_REPRESENTATION_CONTEXT(2) 
PARAMETRIC_REPRESENTATION_CONTEXT() REPRESENTATION_CONTEXT('2D SPACE',''
  ) );
#1168 = PCURVE('',#571,#1169);
#1169 = DEFINITIONAL_REPRESENTATION('',(#1170),#1173);
#1170 = B_SPLINE_CURVE_WITH_KNOTS('',1,(#1171,#1172),.UNSPECIFIED.,.F.,
  .F.,(2,2),(-14.,0.),.PIECEWISE_BEZIER_KNOTS.);
#1171 = CARTESIAN_POINT('',(-3.531388950064,-14.));
#1172 = CARTESIAN_POINT('',(-3.531388950064,0.));
#1173 = ( GEOMETRIC_REPRESENTATION_CONTEXT(2) 
PARAMETRIC_REPRESENTATION_CONTEXT() REPRESENTATION_CONTEXT('2D SPACE',''
  ) );
#1174 = ORIENTED_EDGE('',*,*,#583,.T.);
#1175 = ADVANCED_FACE('',(#1176,#1200,#1203),#571,.F.);
#1176 = FACE_BOUND('',#1177,.T.);
#1177 = EDGE_LOOP('',(#1178,#1179,#1198,#1199));
#1178 = ORIENTED_EDGE('',*,*,#700,.F.);
#1179 = ORIENTED_EDGE('',*,*,#1180,.T.);
#1180 = EDGE_CURVE('',#701,#529,#1181,.T.);
#1181 = SURFACE_CURVE('',#1182,(#1186,#1192),.PCURVE_S1.);
#1182 = LINE('',#1183,#1184);
#1183 = CARTESIAN_POINT('',(-13.87479729581,5.7,0.));
#1184 = VECTOR('',#1185,1.);
#1185 = DIRECTION('',(-0.,-0.,-1.));
#1186 = PCURVE('',#571,#1187);
#1187 = DEFINITIONAL_REPRESENTATION('',(#1188),#1191);
#1188 = B_SPLINE_CURVE_WITH_KNOTS('',1,(#1189,#1190),.UNSPECIFIED.,.F.,
  .F.,(2,2),(-14.,-0.),.PIECEWISE_BEZIER_KNOTS.);
#1189 = CARTESIAN_POINT('',(-9.034981664295,-14.));
#1190 = CARTESIAN_POINT('',(-9.034981664295,0.));
#1191 = ( GEOMETRIC_REPRESENTATION_CONTEXT(2) 
PARAMETRIC_REPRESENTATION_CONTEXT() REPRESENTATION_CONTEXT('2D SPACE',''
  ) );
#1192 = PCURVE('',#543,#1193);
#1193 = DEFINITIONAL_REPRESENTATION('',(#1194),#1197);
#1194 = B_SPLINE_CURVE_WITH_KNOTS('',1,(#1195,#1196),.UNSPECIFIED.,.F.,
  .F.,(2,2),(-14.0000006,6.E-07),.PIECEWISE_BEZIER_KNOTS.);
#1195 = CARTESIAN_POINT('',(13.874797295817,-15.0000006));
#1196 = CARTESIAN_POINT('',(13.874797295817,-0.9999994));
#1197 = ( GEOMETRIC_REPRESENTATION_CONTEXT(2) 
PARAMETRIC_REPRESENTATION_CONTEXT() REPRESENTATION_CONTEXT('2D SPACE',''
  ) );
#1198 = ORIENTED_EDGE('',*,*,#554,.F.);
#1199 = ORIENTED_EDGE('',*,*,#1156,.F.);
#1200 = FACE_BOUND('',#1201,.T.);
#1201 = EDGE_LOOP('',(#1202));
#1202 = ORIENTED_EDGE('',*,*,#798,.T.);
#1203 = FACE_BOUND('',#1204,.T.);
#1204 = EDGE_LOOP('',(#1205));
#1205 = ORIENTED_EDGE('',*,*,#988,.T.);
#1206 = ADVANCED_FACE('',(#1207),#543,.T.);
#1207 = FACE_BOUND('',#1208,.T.);
#1208 = EDGE_LOOP('',(#1209,#1210,#1211,#1212));
#1209 = ORIENTED_EDGE('',*,*,#752,.F.);
#1210 = ORIENTED_EDGE('',*,*,#678,.T.);
#1211 = ORIENTED_EDGE('',*,*,#528,.T.);
#1212 = ORIENTED_EDGE('',*,*,#1180,.F.);
#1213 = ( GEOMETRIC_REPRESENTATION_CONTEXT(3) 
GLOBAL_UNCERTAINTY_ASSIGNED_CONTEXT((#1217)) 
GLOBAL_UNIT_ASSIGNED_CONTEXT((#1214,#1215,#1216)) REPRESENTATION_CONTEXT
('Context #1','3D Context with UNIT and UNCERTAINTY') );
#1214 = ( LENGTH_UNIT() NAMED_UNIT(*) SI_UNIT(.MILLI.,.METRE.) );
#1215 = ( NAMED_UNIT(*) PLANE_ANGLE_UNIT() SI_UNIT($,.RADIAN.) );
#1216 = ( NAMED_UNIT(*) SI_UNIT($,.STERADIAN.) SOLID_ANGLE_UNIT() );
#1217 = UNCERTAINTY_MEASURE_WITH_UNIT(LENGTH_MEASURE(1.E-07),#1214,
  'distance_accuracy_value','confusion accuracy');
#1218 = PRODUCT_RELATED_PRODUCT_CATEGORY('part',$,(#7));
ENDSEC;
END-ISO-10303-21;
